<?xml version="1.0" encoding="utf-8" standalone="no"?>
<!DOCTYPE svg PUBLIC "-//W3C//DTD SVG 1.1//EN"
  "http://www.w3.org/Graphics/SVG/1.1/DTD/svg11.dtd">
<svg xmlns:xlink="http://www.w3.org/1999/xlink" width="619.2pt" height="288pt" viewBox="0 0 619.2 288" xmlns="http://www.w3.org/2000/svg" version="1.1">
 <metadata>
  <rdf:RDF xmlns:dc="http://purl.org/dc/elements/1.1/" xmlns:cc="http://creativecommons.org/ns#" xmlns:rdf="http://www.w3.org/1999/02/22-rdf-syntax-ns#">
   <cc:Work>
    <dc:type rdf:resource="http://purl.org/dc/dcmitype/StillImage"/>
    <dc:date>2026-08-29T06:11:09.574104</dc:date>
    <dc:format>image/svg+xml</dc:format>
    <dc:creator>
     <cc:Agent>
      <dc:title>Matplotlib v3.11.0, https://matplotlib.org/</dc:title>
     </cc:Agent>
    </dc:creator>
   </cc:Work>
  </rdf:RDF>
 </metadata>
 <defs>
  <style type="text/css">*{stroke-linejoin: round; stroke-linecap: butt}</style>
 </defs>
 <g id="figure_1">
  <g id="patch_1">
   <path d="M 0 288 
L 619.2 288 
L 619.2 0 
L 0 0 
z
" style="fill: #ffffff"/>
  </g>
  <g id="axes_1">
   <g id="patch_2">
    <path d="M 54.442344 246.432266 
L 285.312861 246.432266 
L 285.312861 59.07501 
L 54.442344 59.07501 
z
" style="fill: #ffffff"/>
   </g>
   <g id="matplotlib.axis_1">
    <g id="xtick_1">
     <g id="line2d_1">
      <defs>
       <path id="m7c0f51f33a" d="M 0 0 
L 0 3.5 
" style="stroke: #000000; stroke-width: 0.8"/>
      </defs>
      <g>
       <use xlink:href="#m7c0f51f33a" x="64.936458" y="246.432266" style="stroke: #000000; stroke-width: 0.8"/>
      </g>
     </g>
     <g id="text_1">
      <!-- best of 4 -->
      <g transform="translate(45.14138 261.171738) scale(0.09 -0.09)">
       <defs>
        <path id="DejaVuSans-45" d="M 3116 1747 
Q 3116 2381 2855 2742 
Q 2594 3103 2138 3103 
Q 1681 3103 1420 2742 
Q 1159 2381 1159 1747 
Q 1159 1113 1420 752 
Q 1681 391 2138 391 
Q 2594 391 2855 752 
Q 3116 1113 3116 1747 
z
M 1159 2969 
Q 1341 3281 1617 3432 
Q 1894 3584 2278 3584 
Q 2916 3584 3314 3078 
Q 3713 2572 3713 1747 
Q 3713 922 3314 415 
Q 2916 -91 2278 -91 
Q 1894 -91 1617 61 
Q 1341 213 1159 525 
L 1159 0 
L 581 0 
L 581 4863 
L 1159 4863 
L 1159 2969 
z
" transform="scale(0.015625)"/>
        <path id="DejaVuSans-48" d="M 3597 1894 
L 3597 1613 
L 953 1613 
Q 991 1019 1311 708 
Q 1631 397 2203 397 
Q 2534 397 2845 478 
Q 3156 559 3463 722 
L 3463 178 
Q 3153 47 2828 -22 
Q 2503 -91 2169 -91 
Q 1331 -91 842 396 
Q 353 884 353 1716 
Q 353 2575 817 3079 
Q 1281 3584 2069 3584 
Q 2775 3584 3186 3129 
Q 3597 2675 3597 1894 
z
M 3022 2063 
Q 3016 2534 2758 2815 
Q 2500 3097 2075 3097 
Q 1594 3097 1305 2825 
Q 1016 2553 972 2059 
L 3022 2063 
z
" transform="scale(0.015625)"/>
        <path id="DejaVuSans-56" d="M 2834 3397 
L 2834 2853 
Q 2591 2978 2328 3040 
Q 2066 3103 1784 3103 
Q 1356 3103 1142 2972 
Q 928 2841 928 2578 
Q 928 2378 1081 2264 
Q 1234 2150 1697 2047 
L 1894 2003 
Q 2506 1872 2764 1633 
Q 3022 1394 3022 966 
Q 3022 478 2636 193 
Q 2250 -91 1575 -91 
Q 1294 -91 989 -36 
Q 684 19 347 128 
L 347 722 
Q 666 556 975 473 
Q 1284 391 1588 391 
Q 1994 391 2212 530 
Q 2431 669 2431 922 
Q 2431 1156 2273 1281 
Q 2116 1406 1581 1522 
L 1381 1569 
Q 847 1681 609 1914 
Q 372 2147 372 2553 
Q 372 3047 722 3315 
Q 1072 3584 1716 3584 
Q 2034 3584 2315 3537 
Q 2597 3491 2834 3397 
z
" transform="scale(0.015625)"/>
        <path id="DejaVuSans-57" d="M 1172 4494 
L 1172 3500 
L 2356 3500 
L 2356 3053 
L 1172 3053 
L 1172 1153 
Q 1172 725 1289 603 
Q 1406 481 1766 481 
L 2356 481 
L 2356 0 
L 1766 0 
Q 1100 0 847 248 
Q 594 497 594 1153 
L 594 3053 
L 172 3053 
L 172 3500 
L 594 3500 
L 594 4494 
L 1172 4494 
z
" transform="scale(0.015625)"/>
        <path id="DejaVuSans-3" transform="scale(0.015625)"/>
        <path id="DejaVuSans-52" d="M 1959 3097 
Q 1497 3097 1228 2736 
Q 959 2375 959 1747 
Q 959 1119 1226 758 
Q 1494 397 1959 397 
Q 2419 397 2687 759 
Q 2956 1122 2956 1747 
Q 2956 2369 2687 2733 
Q 2419 3097 1959 3097 
z
M 1959 3584 
Q 2709 3584 3137 3096 
Q 3566 2609 3566 1747 
Q 3566 888 3137 398 
Q 2709 -91 1959 -91 
Q 1206 -91 779 398 
Q 353 888 353 1747 
Q 353 2609 779 3096 
Q 1206 3584 1959 3584 
z
" transform="scale(0.015625)"/>
        <path id="DejaVuSans-49" d="M 2375 4863 
L 2375 4384 
L 1825 4384 
Q 1516 4384 1395 4259 
Q 1275 4134 1275 3809 
L 1275 3500 
L 2222 3500 
L 2222 3053 
L 1275 3053 
L 1275 0 
L 697 0 
L 697 3053 
L 147 3053 
L 147 3500 
L 697 3500 
L 697 3744 
Q 697 4328 969 4595 
Q 1241 4863 1831 4863 
L 2375 4863 
z
" transform="scale(0.015625)"/>
        <path id="DejaVuSans-17" d="M 2419 4116 
L 825 1625 
L 2419 1625 
L 2419 4116 
z
M 2253 4666 
L 3047 4666 
L 3047 1625 
L 3713 1625 
L 3713 1100 
L 3047 1100 
L 3047 0 
L 2419 0 
L 2419 1100 
L 313 1100 
L 313 1709 
L 2253 4666 
z
" transform="scale(0.015625)"/>
       </defs>
       <use xlink:href="#DejaVuSans-45"/>
       <use xlink:href="#DejaVuSans-48" transform="translate(63.484375 0)"/>
       <use xlink:href="#DejaVuSans-56" transform="translate(125.015625 0)"/>
       <use xlink:href="#DejaVuSans-57" transform="translate(177.109375 0)"/>
       <use xlink:href="#DejaVuSans-3" transform="translate(216.3125 0)"/>
       <use xlink:href="#DejaVuSans-52" transform="translate(248.09375 0)"/>
       <use xlink:href="#DejaVuSans-49" transform="translate(309.28125 0)"/>
       <use xlink:href="#DejaVuSans-3" transform="translate(344.484375 0)"/>
       <use xlink:href="#DejaVuSans-17" transform="translate(376.265625 0)"/>
      </g>
      <!-- warm starts -->
      <g transform="translate(38.089739 271.973496) scale(0.09 -0.09)">
       <defs>
        <path id="DejaVuSans-5a" d="M 269 3500 
L 844 3500 
L 1563 769 
L 2278 3500 
L 2956 3500 
L 3675 769 
L 4391 3500 
L 4966 3500 
L 4050 0 
L 3372 0 
L 2619 2869 
L 1863 0 
L 1184 0 
L 269 3500 
z
" transform="scale(0.015625)"/>
        <path id="DejaVuSans-44" d="M 2194 1759 
Q 1497 1759 1228 1600 
Q 959 1441 959 1056 
Q 959 750 1161 570 
Q 1363 391 1709 391 
Q 2188 391 2477 730 
Q 2766 1069 2766 1631 
L 2766 1759 
L 2194 1759 
z
M 3341 1997 
L 3341 0 
L 2766 0 
L 2766 531 
Q 2569 213 2275 61 
Q 1981 -91 1556 -91 
Q 1019 -91 701 211 
Q 384 513 384 1019 
Q 384 1609 779 1909 
Q 1175 2209 1959 2209 
L 2766 2209 
L 2766 2266 
Q 2766 2663 2505 2880 
Q 2244 3097 1772 3097 
Q 1472 3097 1187 3025 
Q 903 2953 641 2809 
L 641 3341 
Q 956 3463 1253 3523 
Q 1550 3584 1831 3584 
Q 2591 3584 2966 3190 
Q 3341 2797 3341 1997 
z
" transform="scale(0.015625)"/>
        <path id="DejaVuSans-55" d="M 2631 2963 
Q 2534 3019 2420 3045 
Q 2306 3072 2169 3072 
Q 1681 3072 1420 2755 
Q 1159 2438 1159 1844 
L 1159 0 
L 581 0 
L 581 3500 
L 1159 3500 
L 1159 2956 
Q 1341 3275 1631 3429 
Q 1922 3584 2338 3584 
Q 2397 3584 2469 3576 
Q 2541 3569 2628 3553 
L 2631 2963 
z
" transform="scale(0.015625)"/>
        <path id="DejaVuSans-50" d="M 3328 2828 
Q 3544 3216 3844 3400 
Q 4144 3584 4550 3584 
Q 5097 3584 5394 3201 
Q 5691 2819 5691 2113 
L 5691 0 
L 5113 0 
L 5113 2094 
Q 5113 2597 4934 2840 
Q 4756 3084 4391 3084 
Q 3944 3084 3684 2787 
Q 3425 2491 3425 1978 
L 3425 0 
L 2847 0 
L 2847 2094 
Q 2847 2600 2669 2842 
Q 2491 3084 2119 3084 
Q 1678 3084 1418 2786 
Q 1159 2488 1159 1978 
L 1159 0 
L 581 0 
L 581 3500 
L 1159 3500 
L 1159 2956 
Q 1356 3278 1631 3431 
Q 1906 3584 2284 3584 
Q 2666 3584 2933 3390 
Q 3200 3197 3328 2828 
z
" transform="scale(0.015625)"/>
       </defs>
       <use xlink:href="#DejaVuSans-5a"/>
       <use xlink:href="#DejaVuSans-44" transform="translate(81.78125 0)"/>
       <use xlink:href="#DejaVuSans-55" transform="translate(143.0625 0)"/>
       <use xlink:href="#DejaVuSans-50" transform="translate(182.421875 0)"/>
       <use xlink:href="#DejaVuSans-3" transform="translate(279.828125 0)"/>
       <use xlink:href="#DejaVuSans-56" transform="translate(311.609375 0)"/>
       <use xlink:href="#DejaVuSans-57" transform="translate(363.703125 0)"/>
       <use xlink:href="#DejaVuSans-44" transform="translate(402.90625 0)"/>
       <use xlink:href="#DejaVuSans-55" transform="translate(464.1875 0)"/>
       <use xlink:href="#DejaVuSans-57" transform="translate(505.296875 0)"/>
       <use xlink:href="#DejaVuSans-56" transform="translate(544.5 0)"/>
      </g>
     </g>
    </g>
    <g id="xtick_2">
     <g id="line2d_2">
      <g>
       <use xlink:href="#m7c0f51f33a" x="274.818747" y="246.432266" style="stroke: #000000; stroke-width: 0.8"/>
      </g>
     </g>
     <g id="text_2">
      <!-- final selected -->
      <g transform="translate(244.698278 261.171738) scale(0.09 -0.09)">
       <defs>
        <path id="DejaVuSans-13af" d="M 3431 3500 
L 3431 0 
L 2853 0 
L 2853 3053 
L 1275 3053 
L 1275 0 
L 697 0 
L 697 3053 
L 147 3053 
L 147 3500 
L 697 3500 
L 697 3744 
Q 697 4316 967 4589 
Q 1238 4863 1797 4863 
L 2375 4863 
L 2375 4384 
L 1825 4384 
Q 1516 4384 1395 4259 
Q 1275 4134 1275 3809 
L 1275 3500 
L 3431 3500 
z
M 2853 4856 
L 3431 4856 
L 3431 4128 
L 2853 4128 
L 2853 4856 
z
" transform="scale(0.015625)"/>
        <path id="DejaVuSans-51" d="M 3513 2113 
L 3513 0 
L 2938 0 
L 2938 2094 
Q 2938 2591 2744 2837 
Q 2550 3084 2163 3084 
Q 1697 3084 1428 2787 
Q 1159 2491 1159 1978 
L 1159 0 
L 581 0 
L 581 3500 
L 1159 3500 
L 1159 2956 
Q 1366 3272 1645 3428 
Q 1925 3584 2291 3584 
Q 2894 3584 3203 3211 
Q 3513 2838 3513 2113 
z
" transform="scale(0.015625)"/>
        <path id="DejaVuSans-4f" d="M 603 4863 
L 1178 4863 
L 1178 0 
L 603 0 
L 603 4863 
z
" transform="scale(0.015625)"/>
        <path id="DejaVuSans-46" d="M 3122 3366 
L 3122 2828 
Q 2878 2963 2633 3030 
Q 2388 3097 2138 3097 
Q 1578 3097 1268 2742 
Q 959 2388 959 1747 
Q 959 1106 1268 751 
Q 1578 397 2138 397 
Q 2388 397 2633 464 
Q 2878 531 3122 666 
L 3122 134 
Q 2881 22 2623 -34 
Q 2366 -91 2075 -91 
Q 1284 -91 818 406 
Q 353 903 353 1747 
Q 353 2603 823 3093 
Q 1294 3584 2113 3584 
Q 2378 3584 2631 3529 
Q 2884 3475 3122 3366 
z
" transform="scale(0.015625)"/>
        <path id="DejaVuSans-47" d="M 2906 2969 
L 2906 4863 
L 3481 4863 
L 3481 0 
L 2906 0 
L 2906 525 
Q 2725 213 2448 61 
Q 2172 -91 1784 -91 
Q 1150 -91 751 415 
Q 353 922 353 1747 
Q 353 2572 751 3078 
Q 1150 3584 1784 3584 
Q 2172 3584 2448 3432 
Q 2725 3281 2906 2969 
z
M 947 1747 
Q 947 1113 1208 752 
Q 1469 391 1925 391 
Q 2381 391 2643 752 
Q 2906 1113 2906 1747 
Q 2906 2381 2643 2742 
Q 2381 3103 1925 3103 
Q 1469 3103 1208 2742 
Q 947 2381 947 1747 
z
" transform="scale(0.015625)"/>
       </defs>
       <use xlink:href="#DejaVuSans-13af"/>
       <use xlink:href="#DejaVuSans-51" transform="translate(62.984375 0)"/>
       <use xlink:href="#DejaVuSans-44" transform="translate(126.359375 0)"/>
       <use xlink:href="#DejaVuSans-4f" transform="translate(187.640625 0)"/>
       <use xlink:href="#DejaVuSans-3" transform="translate(215.421875 0)"/>
       <use xlink:href="#DejaVuSans-56" transform="translate(247.203125 0)"/>
       <use xlink:href="#DejaVuSans-48" transform="translate(299.296875 0)"/>
       <use xlink:href="#DejaVuSans-4f" transform="translate(360.828125 0)"/>
       <use xlink:href="#DejaVuSans-48" transform="translate(388.609375 0)"/>
       <use xlink:href="#DejaVuSans-46" transform="translate(450.140625 0)"/>
       <use xlink:href="#DejaVuSans-57" transform="translate(505.125 0)"/>
       <use xlink:href="#DejaVuSans-48" transform="translate(544.328125 0)"/>
       <use xlink:href="#DejaVuSans-47" transform="translate(605.859375 0)"/>
      </g>
      <!-- (after refinement) -->
      <g transform="translate(234.4882 271.974199) scale(0.09 -0.09)">
       <defs>
        <path id="DejaVuSans-b" d="M 1984 4856 
Q 1566 4138 1362 3434 
Q 1159 2731 1159 2009 
Q 1159 1288 1364 580 
Q 1569 -128 1984 -844 
L 1484 -844 
Q 1016 -109 783 600 
Q 550 1309 550 2009 
Q 550 2706 781 3412 
Q 1013 4119 1484 4856 
L 1984 4856 
z
" transform="scale(0.015625)"/>
        <path id="DejaVuSans-c" d="M 513 4856 
L 1013 4856 
Q 1481 4119 1714 3412 
Q 1947 2706 1947 2009 
Q 1947 1309 1714 600 
Q 1481 -109 1013 -844 
L 513 -844 
Q 928 -128 1133 580 
Q 1338 1288 1338 2009 
Q 1338 2731 1133 3434 
Q 928 4138 513 4856 
z
" transform="scale(0.015625)"/>
       </defs>
       <use xlink:href="#DejaVuSans-b"/>
       <use xlink:href="#DejaVuSans-44" transform="translate(39.015625 0)"/>
       <use xlink:href="#DejaVuSans-49" transform="translate(100.296875 0)"/>
       <use xlink:href="#DejaVuSans-57" transform="translate(133.75 0)"/>
       <use xlink:href="#DejaVuSans-48" transform="translate(172.953125 0)"/>
       <use xlink:href="#DejaVuSans-55" transform="translate(234.484375 0)"/>
       <use xlink:href="#DejaVuSans-3" transform="translate(275.59375 0)"/>
       <use xlink:href="#DejaVuSans-55" transform="translate(307.375 0)"/>
       <use xlink:href="#DejaVuSans-48" transform="translate(346.28125 0)"/>
       <use xlink:href="#DejaVuSans-13af" transform="translate(407.8125 0)"/>
       <use xlink:href="#DejaVuSans-51" transform="translate(470.796875 0)"/>
       <use xlink:href="#DejaVuSans-48" transform="translate(534.171875 0)"/>
       <use xlink:href="#DejaVuSans-50" transform="translate(595.703125 0)"/>
       <use xlink:href="#DejaVuSans-48" transform="translate(693.109375 0)"/>
       <use xlink:href="#DejaVuSans-51" transform="translate(754.640625 0)"/>
       <use xlink:href="#DejaVuSans-57" transform="translate(818.015625 0)"/>
       <use xlink:href="#DejaVuSans-c" transform="translate(857.21875 0)"/>
      </g>
     </g>
    </g>
   </g>
   <g id="matplotlib.axis_2">
    <g id="ytick_1">
     <g id="line2d_3">
      <defs>
       <path id="m19f12644af" d="M 0 0 
L -3.5 0 
" style="stroke: #000000; stroke-width: 0.8"/>
      </defs>
      <g>
       <use xlink:href="#m19f12644af" x="54.442344" y="222.767912" style="stroke: #000000; stroke-width: 0.8"/>
      </g>
     </g>
     <g id="text_3">
      <!-- 0.65 -->
      <g transform="translate(25.176719 226.56674) scale(0.1 -0.1)">
       <defs>
        <path id="DejaVuSans-13" d="M 2034 4250 
Q 1547 4250 1301 3770 
Q 1056 3291 1056 2328 
Q 1056 1369 1301 889 
Q 1547 409 2034 409 
Q 2525 409 2770 889 
Q 3016 1369 3016 2328 
Q 3016 3291 2770 3770 
Q 2525 4250 2034 4250 
z
M 2034 4750 
Q 2819 4750 3233 4129 
Q 3647 3509 3647 2328 
Q 3647 1150 3233 529 
Q 2819 -91 2034 -91 
Q 1250 -91 836 529 
Q 422 1150 422 2328 
Q 422 3509 836 4129 
Q 1250 4750 2034 4750 
z
" transform="scale(0.015625)"/>
        <path id="DejaVuSans-11" d="M 684 794 
L 1344 794 
L 1344 0 
L 684 0 
L 684 794 
z
" transform="scale(0.015625)"/>
        <path id="DejaVuSans-19" d="M 2113 2584 
Q 1688 2584 1439 2293 
Q 1191 2003 1191 1497 
Q 1191 994 1439 701 
Q 1688 409 2113 409 
Q 2538 409 2786 701 
Q 3034 994 3034 1497 
Q 3034 2003 2786 2293 
Q 2538 2584 2113 2584 
z
M 3366 4563 
L 3366 3988 
Q 3128 4100 2886 4159 
Q 2644 4219 2406 4219 
Q 1781 4219 1451 3797 
Q 1122 3375 1075 2522 
Q 1259 2794 1537 2939 
Q 1816 3084 2150 3084 
Q 2853 3084 3261 2657 
Q 3669 2231 3669 1497 
Q 3669 778 3244 343 
Q 2819 -91 2113 -91 
Q 1303 -91 875 529 
Q 447 1150 447 2328 
Q 447 3434 972 4092 
Q 1497 4750 2381 4750 
Q 2619 4750 2861 4703 
Q 3103 4656 3366 4563 
z
" transform="scale(0.015625)"/>
        <path id="DejaVuSans-18" d="M 691 4666 
L 3169 4666 
L 3169 4134 
L 1269 4134 
L 1269 2991 
Q 1406 3038 1543 3061 
Q 1681 3084 1819 3084 
Q 2600 3084 3056 2656 
Q 3513 2228 3513 1497 
Q 3513 744 3044 326 
Q 2575 -91 1722 -91 
Q 1428 -91 1123 -41 
Q 819 9 494 109 
L 494 744 
Q 775 591 1075 516 
Q 1375 441 1709 441 
Q 2250 441 2565 725 
Q 2881 1009 2881 1497 
Q 2881 1984 2565 2268 
Q 2250 2553 1709 2553 
Q 1456 2553 1204 2497 
Q 953 2441 691 2322 
L 691 4666 
z
" transform="scale(0.015625)"/>
       </defs>
       <use xlink:href="#DejaVuSans-13"/>
       <use xlink:href="#DejaVuSans-11" transform="translate(63.625 0)"/>
       <use xlink:href="#DejaVuSans-19" transform="translate(95.40625 0)"/>
       <use xlink:href="#DejaVuSans-18" transform="translate(159.03125 0)"/>
      </g>
     </g>
    </g>
    <g id="ytick_2">
     <g id="line2d_4">
      <g>
       <use xlink:href="#m19f12644af" x="54.442344" y="199.077" style="stroke: #000000; stroke-width: 0.8"/>
      </g>
     </g>
     <g id="text_4">
      <!-- 0.70 -->
      <g transform="translate(25.176719 202.875828) scale(0.1 -0.1)">
       <defs>
        <path id="DejaVuSans-1a" d="M 525 4666 
L 3525 4666 
L 3525 4397 
L 1831 0 
L 1172 0 
L 2766 4134 
L 525 4134 
L 525 4666 
z
" transform="scale(0.015625)"/>
       </defs>
       <use xlink:href="#DejaVuSans-13"/>
       <use xlink:href="#DejaVuSans-11" transform="translate(63.625 0)"/>
       <use xlink:href="#DejaVuSans-1a" transform="translate(95.40625 0)"/>
       <use xlink:href="#DejaVuSans-13" transform="translate(159.03125 0)"/>
      </g>
     </g>
    </g>
    <g id="ytick_3">
     <g id="line2d_5">
      <g>
       <use xlink:href="#m19f12644af" x="54.442344" y="175.386087" style="stroke: #000000; stroke-width: 0.8"/>
      </g>
     </g>
     <g id="text_5">
      <!-- 0.75 -->
      <g transform="translate(25.176719 179.184916) scale(0.1 -0.1)">
       <use xlink:href="#DejaVuSans-13"/>
       <use xlink:href="#DejaVuSans-11" transform="translate(63.625 0)"/>
       <use xlink:href="#DejaVuSans-1a" transform="translate(95.40625 0)"/>
       <use xlink:href="#DejaVuSans-18" transform="translate(159.03125 0)"/>
      </g>
     </g>
    </g>
    <g id="ytick_4">
     <g id="line2d_6">
      <g>
       <use xlink:href="#m19f12644af" x="54.442344" y="151.695175" style="stroke: #000000; stroke-width: 0.8"/>
      </g>
     </g>
     <g id="text_6">
      <!-- 0.80 -->
      <g transform="translate(25.176719 155.494003) scale(0.1 -0.1)">
       <defs>
        <path id="DejaVuSans-1b" d="M 2034 2216 
Q 1584 2216 1326 1975 
Q 1069 1734 1069 1313 
Q 1069 891 1326 650 
Q 1584 409 2034 409 
Q 2484 409 2743 651 
Q 3003 894 3003 1313 
Q 3003 1734 2745 1975 
Q 2488 2216 2034 2216 
z
M 1403 2484 
Q 997 2584 770 2862 
Q 544 3141 544 3541 
Q 544 4100 942 4425 
Q 1341 4750 2034 4750 
Q 2731 4750 3128 4425 
Q 3525 4100 3525 3541 
Q 3525 3141 3298 2862 
Q 3072 2584 2669 2484 
Q 3125 2378 3379 2068 
Q 3634 1759 3634 1313 
Q 3634 634 3220 271 
Q 2806 -91 2034 -91 
Q 1263 -91 848 271 
Q 434 634 434 1313 
Q 434 1759 690 2068 
Q 947 2378 1403 2484 
z
M 1172 3481 
Q 1172 3119 1398 2916 
Q 1625 2713 2034 2713 
Q 2441 2713 2670 2916 
Q 2900 3119 2900 3481 
Q 2900 3844 2670 4047 
Q 2441 4250 2034 4250 
Q 1625 4250 1398 4047 
Q 1172 3844 1172 3481 
z
" transform="scale(0.015625)"/>
       </defs>
       <use xlink:href="#DejaVuSans-13"/>
       <use xlink:href="#DejaVuSans-11" transform="translate(63.625 0)"/>
       <use xlink:href="#DejaVuSans-1b" transform="translate(95.40625 0)"/>
       <use xlink:href="#DejaVuSans-13" transform="translate(159.03125 0)"/>
      </g>
     </g>
    </g>
    <g id="ytick_5">
     <g id="line2d_7">
      <g>
       <use xlink:href="#m19f12644af" x="54.442344" y="128.004263" style="stroke: #000000; stroke-width: 0.8"/>
      </g>
     </g>
     <g id="text_7">
      <!-- 0.85 -->
      <g transform="translate(25.176719 131.803091) scale(0.1 -0.1)">
       <use xlink:href="#DejaVuSans-13"/>
       <use xlink:href="#DejaVuSans-11" transform="translate(63.625 0)"/>
       <use xlink:href="#DejaVuSans-1b" transform="translate(95.40625 0)"/>
       <use xlink:href="#DejaVuSans-18" transform="translate(159.03125 0)"/>
      </g>
     </g>
    </g>
    <g id="ytick_6">
     <g id="line2d_8">
      <g>
       <use xlink:href="#m19f12644af" x="54.442344" y="104.313351" style="stroke: #000000; stroke-width: 0.8"/>
      </g>
     </g>
     <g id="text_8">
      <!-- 0.90 -->
      <g transform="translate(25.176719 108.112179) scale(0.1 -0.1)">
       <defs>
        <path id="DejaVuSans-1c" d="M 703 97 
L 703 672 
Q 941 559 1184 500 
Q 1428 441 1663 441 
Q 2288 441 2617 861 
Q 2947 1281 2994 2138 
Q 2813 1869 2534 1725 
Q 2256 1581 1919 1581 
Q 1219 1581 811 2004 
Q 403 2428 403 3163 
Q 403 3881 828 4315 
Q 1253 4750 1959 4750 
Q 2769 4750 3195 4129 
Q 3622 3509 3622 2328 
Q 3622 1225 3098 567 
Q 2575 -91 1691 -91 
Q 1453 -91 1209 -44 
Q 966 3 703 97 
z
M 1959 2075 
Q 2384 2075 2632 2365 
Q 2881 2656 2881 3163 
Q 2881 3666 2632 3958 
Q 2384 4250 1959 4250 
Q 1534 4250 1286 3958 
Q 1038 3666 1038 3163 
Q 1038 2656 1286 2365 
Q 1534 2075 1959 2075 
z
" transform="scale(0.015625)"/>
       </defs>
       <use xlink:href="#DejaVuSans-13"/>
       <use xlink:href="#DejaVuSans-11" transform="translate(63.625 0)"/>
       <use xlink:href="#DejaVuSans-1c" transform="translate(95.40625 0)"/>
       <use xlink:href="#DejaVuSans-13" transform="translate(159.03125 0)"/>
      </g>
     </g>
    </g>
    <g id="ytick_7">
     <g id="line2d_9">
      <g>
       <use xlink:href="#m19f12644af" x="54.442344" y="80.622439" style="stroke: #000000; stroke-width: 0.8"/>
      </g>
     </g>
     <g id="text_9">
      <!-- 0.95 -->
      <g transform="translate(25.176719 84.421267) scale(0.1 -0.1)">
       <use xlink:href="#DejaVuSans-13"/>
       <use xlink:href="#DejaVuSans-11" transform="translate(63.625 0)"/>
       <use xlink:href="#DejaVuSans-1c" transform="translate(95.40625 0)"/>
       <use xlink:href="#DejaVuSans-18" transform="translate(159.03125 0)"/>
      </g>
     </g>
    </g>
    <g id="text_10">
     <!-- Held-out test $F_{trash}$ (higher is better) -->
     <g transform="translate(18.774375 243.053638) rotate(-90) scale(0.1 -0.1)">
      <defs>
       <path id="DejaVuSans-2b" d="M 628 4666 
L 1259 4666 
L 1259 2753 
L 3553 2753 
L 3553 4666 
L 4184 4666 
L 4184 0 
L 3553 0 
L 3553 2222 
L 1259 2222 
L 1259 0 
L 628 0 
L 628 4666 
z
" transform="scale(0.015625)"/>
       <path id="DejaVuSans-10" d="M 313 2009 
L 1997 2009 
L 1997 1497 
L 313 1497 
L 313 2009 
z
" transform="scale(0.015625)"/>
       <path id="DejaVuSans-58" d="M 544 1381 
L 544 3500 
L 1119 3500 
L 1119 1403 
Q 1119 906 1312 657 
Q 1506 409 1894 409 
Q 2359 409 2629 706 
Q 2900 1003 2900 1516 
L 2900 3500 
L 3475 3500 
L 3475 0 
L 2900 0 
L 2900 538 
Q 2691 219 2414 64 
Q 2138 -91 1772 -91 
Q 1169 -91 856 284 
Q 544 659 544 1381 
z
M 1991 3584 
L 1991 3584 
z
" transform="scale(0.015625)"/>
       <path id="DejaVuSans-Oblique-29" d="M 1081 4666 
L 3756 4666 
L 3653 4134 
L 1606 4134 
L 1338 2759 
L 3188 2759 
L 3084 2228 
L 1234 2228 
L 800 0 
L 172 0 
L 1081 4666 
z
" transform="scale(0.015625)"/>
       <path id="DejaVuSans-Oblique-57" d="M 2706 3500 
L 2619 3053 
L 1472 3053 
L 1100 1153 
Q 1081 1047 1072 975 
Q 1063 903 1063 863 
Q 1063 663 1183 572 
Q 1303 481 1569 481 
L 2150 481 
L 2053 0 
L 1503 0 
Q 991 0 739 200 
Q 488 400 488 806 
Q 488 878 497 964 
Q 506 1050 525 1153 
L 897 3053 
L 409 3053 
L 500 3500 
L 978 3500 
L 1172 4494 
L 1747 4494 
L 1556 3500 
L 2706 3500 
z
" transform="scale(0.015625)"/>
       <path id="DejaVuSans-Oblique-55" d="M 2853 2969 
Q 2766 3016 2653 3041 
Q 2541 3066 2413 3066 
Q 1953 3066 1609 2717 
Q 1266 2369 1153 1784 
L 800 0 
L 225 0 
L 909 3500 
L 1484 3500 
L 1375 2956 
Q 1603 3259 1920 3421 
Q 2238 3584 2597 3584 
Q 2691 3584 2781 3573 
Q 2872 3563 2963 3538 
L 2853 2969 
z
" transform="scale(0.015625)"/>
       <path id="DejaVuSans-Oblique-44" d="M 3438 1997 
L 3047 0 
L 2472 0 
L 2578 531 
Q 2325 219 2001 64 
Q 1678 -91 1281 -91 
Q 834 -91 548 182 
Q 263 456 263 884 
Q 263 1497 752 1853 
Q 1241 2209 2100 2209 
L 2900 2209 
L 2931 2363 
Q 2938 2388 2941 2417 
Q 2944 2447 2944 2509 
Q 2944 2788 2717 2942 
Q 2491 3097 2081 3097 
Q 1800 3097 1504 3025 
Q 1209 2953 897 2809 
L 997 3341 
Q 1322 3463 1633 3523 
Q 1944 3584 2234 3584 
Q 2853 3584 3176 3315 
Q 3500 3047 3500 2534 
Q 3500 2431 3484 2292 
Q 3469 2153 3438 1997 
z
M 2816 1759 
L 2241 1759 
Q 1534 1759 1195 1570 
Q 856 1381 856 984 
Q 856 709 1029 553 
Q 1203 397 1509 397 
Q 1978 397 2328 733 
Q 2678 1069 2791 1631 
L 2816 1759 
z
" transform="scale(0.015625)"/>
       <path id="DejaVuSans-Oblique-56" d="M 3200 3397 
L 3091 2853 
Q 2863 2978 2609 3040 
Q 2356 3103 2088 3103 
Q 1634 3103 1373 2948 
Q 1113 2794 1113 2528 
Q 1113 2219 1719 2053 
Q 1766 2041 1788 2034 
L 1972 1978 
Q 2547 1819 2739 1644 
Q 2931 1469 2931 1166 
Q 2931 609 2489 259 
Q 2047 -91 1331 -91 
Q 1053 -91 747 -37 
Q 441 16 72 128 
L 184 722 
Q 500 559 806 475 
Q 1113 391 1394 391 
Q 1816 391 2080 572 
Q 2344 753 2344 1031 
Q 2344 1331 1650 1516 
L 1591 1531 
L 1394 1581 
Q 956 1697 753 1886 
Q 550 2075 550 2369 
Q 550 2928 970 3256 
Q 1391 3584 2113 3584 
Q 2397 3584 2667 3537 
Q 2938 3491 3200 3397 
z
" transform="scale(0.015625)"/>
       <path id="DejaVuSans-Oblique-4b" d="M 3566 2113 
L 3156 0 
L 2578 0 
L 2988 2091 
Q 3016 2238 3031 2350 
Q 3047 2463 3047 2528 
Q 3047 2791 2881 2937 
Q 2716 3084 2419 3084 
Q 1956 3084 1617 2771 
Q 1278 2459 1178 1941 
L 800 0 
L 225 0 
L 1172 4863 
L 1747 4863 
L 1375 2950 
Q 1594 3244 1934 3414 
Q 2275 3584 2650 3584 
Q 3113 3584 3367 3334 
Q 3622 3084 3622 2631 
Q 3622 2519 3608 2391 
Q 3594 2263 3566 2113 
z
" transform="scale(0.015625)"/>
       <path id="DejaVuSans-4b" d="M 3513 2113 
L 3513 0 
L 2938 0 
L 2938 2094 
Q 2938 2591 2744 2837 
Q 2550 3084 2163 3084 
Q 1697 3084 1428 2787 
Q 1159 2491 1159 1978 
L 1159 0 
L 581 0 
L 581 4863 
L 1159 4863 
L 1159 2956 
Q 1366 3272 1645 3428 
Q 1925 3584 2291 3584 
Q 2894 3584 3203 3211 
Q 3513 2838 3513 2113 
z
" transform="scale(0.015625)"/>
       <path id="DejaVuSans-4c" d="M 603 3500 
L 1178 3500 
L 1178 0 
L 603 0 
L 603 3500 
z
M 603 4863 
L 1178 4863 
L 1178 4134 
L 603 4134 
L 603 4863 
z
" transform="scale(0.015625)"/>
       <path id="DejaVuSans-4a" d="M 2906 1791 
Q 2906 2416 2648 2759 
Q 2391 3103 1925 3103 
Q 1463 3103 1205 2759 
Q 947 2416 947 1791 
Q 947 1169 1205 825 
Q 1463 481 1925 481 
Q 2391 481 2648 825 
Q 2906 1169 2906 1791 
z
M 3481 434 
Q 3481 -459 3084 -895 
Q 2688 -1331 1869 -1331 
Q 1566 -1331 1297 -1286 
Q 1028 -1241 775 -1147 
L 775 -588 
Q 1028 -725 1275 -790 
Q 1522 -856 1778 -856 
Q 2344 -856 2625 -561 
Q 2906 -266 2906 331 
L 2906 616 
Q 2728 306 2450 153 
Q 2172 0 1784 0 
Q 1141 0 747 490 
Q 353 981 353 1791 
Q 353 2603 747 3093 
Q 1141 3584 1784 3584 
Q 2172 3584 2450 3431 
Q 2728 3278 2906 2969 
L 2906 3500 
L 3481 3500 
L 3481 434 
z
" transform="scale(0.015625)"/>
      </defs>
      <use xlink:href="#DejaVuSans-2b" transform="translate(0 0.015625)"/>
      <use xlink:href="#DejaVuSans-48" transform="translate(75.195312 0.015625)"/>
      <use xlink:href="#DejaVuSans-4f" transform="translate(136.71875 0.015625)"/>
      <use xlink:href="#DejaVuSans-47" transform="translate(164.501953 0.015625)"/>
      <use xlink:href="#DejaVuSans-10" transform="translate(227.978516 0.015625)"/>
      <use xlink:href="#DejaVuSans-52" transform="translate(266.0625 0.015625)"/>
      <use xlink:href="#DejaVuSans-58" transform="translate(327.244141 0.015625)"/>
      <use xlink:href="#DejaVuSans-57" transform="translate(390.623047 0.015625)"/>
      <use xlink:href="#DejaVuSans-3" transform="translate(429.832031 0.015625)"/>
      <use xlink:href="#DejaVuSans-57" transform="translate(461.619141 0.015625)"/>
      <use xlink:href="#DejaVuSans-48" transform="translate(500.828125 0.015625)"/>
      <use xlink:href="#DejaVuSans-56" transform="translate(562.351562 0.015625)"/>
      <use xlink:href="#DejaVuSans-57" transform="translate(614.451172 0.015625)"/>
      <use xlink:href="#DejaVuSans-3" transform="translate(653.660156 0.015625)"/>
      <use xlink:href="#DejaVuSans-Oblique-29" transform="translate(685.447266 0.015625)"/>
      <use xlink:href="#DejaVuSans-Oblique-57" transform="translate(742.966797 -14.984326) scale(0.7)"/>
      <use xlink:href="#DejaVuSans-Oblique-55" transform="translate(770.413086 -14.984326) scale(0.7)"/>
      <use xlink:href="#DejaVuSans-Oblique-44" transform="translate(799.192383 -14.984326) scale(0.7)"/>
      <use xlink:href="#DejaVuSans-Oblique-56" transform="translate(842.087891 -14.984326) scale(0.7)"/>
      <use xlink:href="#DejaVuSans-Oblique-4b" transform="translate(878.557617 -14.984326) scale(0.7)"/>
      <use xlink:href="#DejaVuSans-3" transform="translate(925.657227 0.015625)"/>
      <use xlink:href="#DejaVuSans-b" transform="translate(957.444336 0.015625)"/>
      <use xlink:href="#DejaVuSans-4b" transform="translate(996.458008 0.015625)"/>
      <use xlink:href="#DejaVuSans-4c" transform="translate(1059.836914 0.015625)"/>
      <use xlink:href="#DejaVuSans-4a" transform="translate(1087.620117 0.015625)"/>
      <use xlink:href="#DejaVuSans-4b" transform="translate(1151.09668 0.015625)"/>
      <use xlink:href="#DejaVuSans-48" transform="translate(1214.475586 0.015625)"/>
      <use xlink:href="#DejaVuSans-55" transform="translate(1275.999023 0.015625)"/>
      <use xlink:href="#DejaVuSans-3" transform="translate(1317.112305 0.015625)"/>
      <use xlink:href="#DejaVuSans-4c" transform="translate(1348.899414 0.015625)"/>
      <use xlink:href="#DejaVuSans-56" transform="translate(1376.682617 0.015625)"/>
      <use xlink:href="#DejaVuSans-3" transform="translate(1428.782227 0.015625)"/>
      <use xlink:href="#DejaVuSans-45" transform="translate(1460.569336 0.015625)"/>
      <use xlink:href="#DejaVuSans-48" transform="translate(1524.045898 0.015625)"/>
      <use xlink:href="#DejaVuSans-57" transform="translate(1585.569336 0.015625)"/>
      <use xlink:href="#DejaVuSans-57" transform="translate(1624.77832 0.015625)"/>
      <use xlink:href="#DejaVuSans-48" transform="translate(1663.987305 0.015625)"/>
      <use xlink:href="#DejaVuSans-55" transform="translate(1725.510742 0.015625)"/>
      <use xlink:href="#DejaVuSans-c" transform="translate(1766.624023 0.015625)"/>
     </g>
    </g>
   </g>
   <g id="line2d_10">
    <path d="M 64.936458 125.528819 
L 274.818747 124.901812 
" clip-path="url(#pe55545d839)" style="fill: none; stroke: #1a73e8; stroke-opacity: 0.75; stroke-width: 1.2; stroke-linecap: square"/>
    <defs>
     <path id="mb33a1fb732" d="M 0 2 
C 0.530406 2 1.03916 1.789267 1.414214 1.414214 
C 1.789267 1.03916 2 0.530406 2 0 
C 2 -0.530406 1.789267 -1.03916 1.414214 -1.414214 
C 1.03916 -1.789267 0.530406 -2 0 -2 
C -0.530406 -2 -1.03916 -1.789267 -1.414214 -1.414214 
C -1.789267 -1.03916 -2 -0.530406 -2 0 
C -2 0.530406 -1.789267 1.03916 -1.414214 1.414214 
C -1.03916 1.789267 -0.530406 2 0 2 
z
" style="stroke: #1a73e8; stroke-opacity: 0.75"/>
    </defs>
    <g clip-path="url(#pe55545d839)">
     <use xlink:href="#mb33a1fb732" x="64.936458" y="125.528819" style="fill: #1a73e8; fill-opacity: 0.75; stroke: #1a73e8; stroke-opacity: 0.75"/>
     <use xlink:href="#mb33a1fb732" x="274.818747" y="124.901812" style="fill: #1a73e8; fill-opacity: 0.75; stroke: #1a73e8; stroke-opacity: 0.75"/>
    </g>
   </g>
   <g id="line2d_11">
    <path d="M 64.936458 107.657336 
L 274.818747 107.657336 
" clip-path="url(#pe55545d839)" style="fill: none; stroke: #9aa0a6; stroke-opacity: 0.75; stroke-width: 1.2; stroke-linecap: square"/>
    <defs>
     <path id="m25bbde2909" d="M 0 2 
C 0.530406 2 1.03916 1.789267 1.414214 1.414214 
C 1.789267 1.03916 2 0.530406 2 0 
C 2 -0.530406 1.789267 -1.03916 1.414214 -1.414214 
C 1.03916 -1.789267 0.530406 -2 0 -2 
C -0.530406 -2 -1.03916 -1.789267 -1.414214 -1.414214 
C -1.789267 -1.03916 -2 -0.530406 -2 0 
C -2 0.530406 -1.789267 1.03916 -1.414214 1.414214 
C -1.03916 1.789267 -0.530406 2 0 2 
z
" style="stroke: #9aa0a6; stroke-opacity: 0.75"/>
    </defs>
    <g clip-path="url(#pe55545d839)">
     <use xlink:href="#m25bbde2909" x="64.936458" y="107.657336" style="fill: #9aa0a6; fill-opacity: 0.75; stroke: #9aa0a6; stroke-opacity: 0.75"/>
     <use xlink:href="#m25bbde2909" x="274.818747" y="107.657336" style="fill: #9aa0a6; fill-opacity: 0.75; stroke: #9aa0a6; stroke-opacity: 0.75"/>
    </g>
   </g>
   <g id="line2d_12">
    <path d="M 64.936458 143.288008 
L 274.818747 114.436993 
" clip-path="url(#pe55545d839)" style="fill: none; stroke: #1a73e8; stroke-opacity: 0.75; stroke-width: 1.2; stroke-linecap: square"/>
    <g clip-path="url(#pe55545d839)">
     <use xlink:href="#mb33a1fb732" x="64.936458" y="143.288008" style="fill: #1a73e8; fill-opacity: 0.75; stroke: #1a73e8; stroke-opacity: 0.75"/>
     <use xlink:href="#mb33a1fb732" x="274.818747" y="114.436993" style="fill: #1a73e8; fill-opacity: 0.75; stroke: #1a73e8; stroke-opacity: 0.75"/>
    </g>
   </g>
   <g id="line2d_13">
    <path d="M 64.936458 89.593446 
L 274.818747 78.01747 
" clip-path="url(#pe55545d839)" style="fill: none; stroke: #1a73e8; stroke-opacity: 0.75; stroke-width: 1.2; stroke-linecap: square"/>
    <g clip-path="url(#pe55545d839)">
     <use xlink:href="#mb33a1fb732" x="64.936458" y="89.593446" style="fill: #1a73e8; fill-opacity: 0.75; stroke: #1a73e8; stroke-opacity: 0.75"/>
     <use xlink:href="#mb33a1fb732" x="274.818747" y="78.01747" style="fill: #1a73e8; fill-opacity: 0.75; stroke: #1a73e8; stroke-opacity: 0.75"/>
    </g>
   </g>
   <g id="line2d_14">
    <path d="M 64.936458 130.918163 
L 274.818747 130.665067 
" clip-path="url(#pe55545d839)" style="fill: none; stroke: #1a73e8; stroke-opacity: 0.75; stroke-width: 1.2; stroke-linecap: square"/>
    <g clip-path="url(#pe55545d839)">
     <use xlink:href="#mb33a1fb732" x="64.936458" y="130.918163" style="fill: #1a73e8; fill-opacity: 0.75; stroke: #1a73e8; stroke-opacity: 0.75"/>
     <use xlink:href="#mb33a1fb732" x="274.818747" y="130.665067" style="fill: #1a73e8; fill-opacity: 0.75; stroke: #1a73e8; stroke-opacity: 0.75"/>
    </g>
   </g>
   <g id="line2d_15">
    <path d="M 64.936458 134.56983 
L 274.818747 131.404107 
" clip-path="url(#pe55545d839)" style="fill: none; stroke: #1a73e8; stroke-opacity: 0.75; stroke-width: 1.2; stroke-linecap: square"/>
    <g clip-path="url(#pe55545d839)">
     <use xlink:href="#mb33a1fb732" x="64.936458" y="134.56983" style="fill: #1a73e8; fill-opacity: 0.75; stroke: #1a73e8; stroke-opacity: 0.75"/>
     <use xlink:href="#mb33a1fb732" x="274.818747" y="131.404107" style="fill: #1a73e8; fill-opacity: 0.75; stroke: #1a73e8; stroke-opacity: 0.75"/>
    </g>
   </g>
   <g id="line2d_16">
    <path d="M 64.936458 120.045732 
L 274.818747 120.045732 
" clip-path="url(#pe55545d839)" style="fill: none; stroke: #9aa0a6; stroke-opacity: 0.75; stroke-width: 1.2; stroke-linecap: square"/>
    <g clip-path="url(#pe55545d839)">
     <use xlink:href="#m25bbde2909" x="64.936458" y="120.045732" style="fill: #9aa0a6; fill-opacity: 0.75; stroke: #9aa0a6; stroke-opacity: 0.75"/>
     <use xlink:href="#m25bbde2909" x="274.818747" y="120.045732" style="fill: #9aa0a6; fill-opacity: 0.75; stroke: #9aa0a6; stroke-opacity: 0.75"/>
    </g>
   </g>
   <g id="line2d_17">
    <path d="M 64.936458 94.859933 
L 274.818747 94.798742 
" clip-path="url(#pe55545d839)" style="fill: none; stroke: #1a73e8; stroke-opacity: 0.75; stroke-width: 1.2; stroke-linecap: square"/>
    <g clip-path="url(#pe55545d839)">
     <use xlink:href="#mb33a1fb732" x="64.936458" y="94.859933" style="fill: #1a73e8; fill-opacity: 0.75; stroke: #1a73e8; stroke-opacity: 0.75"/>
     <use xlink:href="#mb33a1fb732" x="274.818747" y="94.798742" style="fill: #1a73e8; fill-opacity: 0.75; stroke: #1a73e8; stroke-opacity: 0.75"/>
    </g>
   </g>
   <g id="line2d_18">
    <path d="M 64.936458 108.76156 
L 274.818747 107.600274 
" clip-path="url(#pe55545d839)" style="fill: none; stroke: #1a73e8; stroke-opacity: 0.75; stroke-width: 1.2; stroke-linecap: square"/>
    <g clip-path="url(#pe55545d839)">
     <use xlink:href="#mb33a1fb732" x="64.936458" y="108.76156" style="fill: #1a73e8; fill-opacity: 0.75; stroke: #1a73e8; stroke-opacity: 0.75"/>
     <use xlink:href="#mb33a1fb732" x="274.818747" y="107.600274" style="fill: #1a73e8; fill-opacity: 0.75; stroke: #1a73e8; stroke-opacity: 0.75"/>
    </g>
   </g>
   <g id="line2d_19">
    <path d="M 64.936458 132.692218 
L 274.818747 132.440898 
" clip-path="url(#pe55545d839)" style="fill: none; stroke: #1a73e8; stroke-opacity: 0.75; stroke-width: 1.2; stroke-linecap: square"/>
    <g clip-path="url(#pe55545d839)">
     <use xlink:href="#mb33a1fb732" x="64.936458" y="132.692218" style="fill: #1a73e8; fill-opacity: 0.75; stroke: #1a73e8; stroke-opacity: 0.75"/>
     <use xlink:href="#mb33a1fb732" x="274.818747" y="132.440898" style="fill: #1a73e8; fill-opacity: 0.75; stroke: #1a73e8; stroke-opacity: 0.75"/>
    </g>
   </g>
   <g id="line2d_20">
    <path d="M 64.936458 237.916027 
L 274.818747 211.745128 
" clip-path="url(#pe55545d839)" style="fill: none; stroke: #1a73e8; stroke-opacity: 0.75; stroke-width: 1.2; stroke-linecap: square"/>
    <g clip-path="url(#pe55545d839)">
     <use xlink:href="#mb33a1fb732" x="64.936458" y="237.916027" style="fill: #1a73e8; fill-opacity: 0.75; stroke: #1a73e8; stroke-opacity: 0.75"/>
     <use xlink:href="#mb33a1fb732" x="274.818747" y="211.745128" style="fill: #1a73e8; fill-opacity: 0.75; stroke: #1a73e8; stroke-opacity: 0.75"/>
    </g>
   </g>
   <g id="line2d_21">
    <path d="M 64.936458 89.053584 
L 274.818747 70.99029 
" clip-path="url(#pe55545d839)" style="fill: none; stroke: #1a73e8; stroke-opacity: 0.75; stroke-width: 1.2; stroke-linecap: square"/>
    <g clip-path="url(#pe55545d839)">
     <use xlink:href="#mb33a1fb732" x="64.936458" y="89.053584" style="fill: #1a73e8; fill-opacity: 0.75; stroke: #1a73e8; stroke-opacity: 0.75"/>
     <use xlink:href="#mb33a1fb732" x="274.818747" y="70.99029" style="fill: #1a73e8; fill-opacity: 0.75; stroke: #1a73e8; stroke-opacity: 0.75"/>
    </g>
   </g>
   <g id="patch_3">
    <path d="M 54.442344 246.432266 
L 54.442344 59.07501 
" style="fill: none; stroke: #000000; stroke-width: 0.8; stroke-linejoin: miter; stroke-linecap: square"/>
   </g>
   <g id="patch_4">
    <path d="M 54.442344 246.432266 
L 285.312861 246.432266 
" style="fill: none; stroke: #000000; stroke-width: 0.8; stroke-linejoin: miter; stroke-linecap: square"/>
   </g>
   <g id="text_11">
    <!-- Greedy: refinement gain +0.0159 -->
    <g transform="translate(89.918774 41.672412) scale(0.095 -0.095)">
     <defs>
      <path id="DejaVuSans-2a" d="M 3809 666 
L 3809 1919 
L 2778 1919 
L 2778 2438 
L 4434 2438 
L 4434 434 
Q 4069 175 3628 42 
Q 3188 -91 2688 -91 
Q 1594 -91 976 548 
Q 359 1188 359 2328 
Q 359 3472 976 4111 
Q 1594 4750 2688 4750 
Q 3144 4750 3555 4637 
Q 3966 4525 4313 4306 
L 4313 3634 
Q 3963 3931 3569 4081 
Q 3175 4231 2741 4231 
Q 1884 4231 1454 3753 
Q 1025 3275 1025 2328 
Q 1025 1384 1454 906 
Q 1884 428 2741 428 
Q 3075 428 3337 486 
Q 3600 544 3809 666 
z
" transform="scale(0.015625)"/>
      <path id="DejaVuSans-5c" d="M 2059 -325 
Q 1816 -950 1584 -1140 
Q 1353 -1331 966 -1331 
L 506 -1331 
L 506 -850 
L 844 -850 
Q 1081 -850 1212 -737 
Q 1344 -625 1503 -206 
L 1606 56 
L 191 3500 
L 800 3500 
L 1894 763 
L 2988 3500 
L 3597 3500 
L 2059 -325 
z
" transform="scale(0.015625)"/>
      <path id="DejaVuSans-1d" d="M 750 794 
L 1409 794 
L 1409 0 
L 750 0 
L 750 794 
z
M 750 3309 
L 1409 3309 
L 1409 2516 
L 750 2516 
L 750 3309 
z
" transform="scale(0.015625)"/>
      <path id="DejaVuSans-e" d="M 2944 4013 
L 2944 2272 
L 4684 2272 
L 4684 1741 
L 2944 1741 
L 2944 0 
L 2419 0 
L 2419 1741 
L 678 1741 
L 678 2272 
L 2419 2272 
L 2419 4013 
L 2944 4013 
z
" transform="scale(0.015625)"/>
      <path id="DejaVuSans-14" d="M 794 531 
L 1825 531 
L 1825 4091 
L 703 3866 
L 703 4441 
L 1819 4666 
L 2450 4666 
L 2450 531 
L 3481 531 
L 3481 0 
L 794 0 
L 794 531 
z
" transform="scale(0.015625)"/>
     </defs>
     <use xlink:href="#DejaVuSans-2a"/>
     <use xlink:href="#DejaVuSans-55" transform="translate(77.484375 0)"/>
     <use xlink:href="#DejaVuSans-48" transform="translate(116.390625 0)"/>
     <use xlink:href="#DejaVuSans-48" transform="translate(177.921875 0)"/>
     <use xlink:href="#DejaVuSans-47" transform="translate(239.453125 0)"/>
     <use xlink:href="#DejaVuSans-5c" transform="translate(302.9375 0)"/>
     <use xlink:href="#DejaVuSans-1d" transform="translate(354.84375 0)"/>
     <use xlink:href="#DejaVuSans-3" transform="translate(388.53125 0)"/>
     <use xlink:href="#DejaVuSans-55" transform="translate(420.3125 0)"/>
     <use xlink:href="#DejaVuSans-48" transform="translate(459.21875 0)"/>
     <use xlink:href="#DejaVuSans-13af" transform="translate(520.75 0)"/>
     <use xlink:href="#DejaVuSans-51" transform="translate(583.734375 0)"/>
     <use xlink:href="#DejaVuSans-48" transform="translate(647.109375 0)"/>
     <use xlink:href="#DejaVuSans-50" transform="translate(708.640625 0)"/>
     <use xlink:href="#DejaVuSans-48" transform="translate(806.046875 0)"/>
     <use xlink:href="#DejaVuSans-51" transform="translate(867.578125 0)"/>
     <use xlink:href="#DejaVuSans-57" transform="translate(930.953125 0)"/>
     <use xlink:href="#DejaVuSans-3" transform="translate(970.15625 0)"/>
     <use xlink:href="#DejaVuSans-4a" transform="translate(1001.9375 0)"/>
     <use xlink:href="#DejaVuSans-44" transform="translate(1065.421875 0)"/>
     <use xlink:href="#DejaVuSans-4c" transform="translate(1126.703125 0)"/>
     <use xlink:href="#DejaVuSans-51" transform="translate(1154.484375 0)"/>
     <use xlink:href="#DejaVuSans-3" transform="translate(1217.859375 0)"/>
     <use xlink:href="#DejaVuSans-e" transform="translate(1249.640625 0)"/>
     <use xlink:href="#DejaVuSans-13" transform="translate(1333.4375 0)"/>
     <use xlink:href="#DejaVuSans-11" transform="translate(1397.0625 0)"/>
     <use xlink:href="#DejaVuSans-13" transform="translate(1428.84375 0)"/>
     <use xlink:href="#DejaVuSans-14" transform="translate(1492.46875 0)"/>
     <use xlink:href="#DejaVuSans-18" transform="translate(1556.09375 0)"/>
     <use xlink:href="#DejaVuSans-1c" transform="translate(1619.71875 0)"/>
    </g>
    <!-- (95% CI [+0.0044, +0.0288], 10/12 improved) -->
    <g transform="translate(59.264946 53.07501) scale(0.095 -0.095)">
     <defs>
      <path id="DejaVuSans-8" d="M 4653 2053 
Q 4381 2053 4226 1822 
Q 4072 1591 4072 1178 
Q 4072 772 4226 539 
Q 4381 306 4653 306 
Q 4919 306 5073 539 
Q 5228 772 5228 1178 
Q 5228 1588 5073 1820 
Q 4919 2053 4653 2053 
z
M 4653 2450 
Q 5147 2450 5437 2106 
Q 5728 1763 5728 1178 
Q 5728 594 5436 251 
Q 5144 -91 4653 -91 
Q 4153 -91 3862 251 
Q 3572 594 3572 1178 
Q 3572 1766 3864 2108 
Q 4156 2450 4653 2450 
z
M 1428 4353 
Q 1159 4353 1004 4120 
Q 850 3888 850 3481 
Q 850 3069 1003 2837 
Q 1156 2606 1428 2606 
Q 1700 2606 1854 2837 
Q 2009 3069 2009 3481 
Q 2009 3884 1853 4118 
Q 1697 4353 1428 4353 
z
M 4250 4750 
L 4750 4750 
L 1831 -91 
L 1331 -91 
L 4250 4750 
z
M 1428 4750 
Q 1922 4750 2215 4408 
Q 2509 4066 2509 3481 
Q 2509 2891 2217 2550 
Q 1925 2209 1428 2209 
Q 931 2209 642 2551 
Q 353 2894 353 3481 
Q 353 4063 643 4406 
Q 934 4750 1428 4750 
z
" transform="scale(0.015625)"/>
      <path id="DejaVuSans-26" d="M 4122 4306 
L 4122 3641 
Q 3803 3938 3442 4084 
Q 3081 4231 2675 4231 
Q 1875 4231 1450 3742 
Q 1025 3253 1025 2328 
Q 1025 1406 1450 917 
Q 1875 428 2675 428 
Q 3081 428 3442 575 
Q 3803 722 4122 1019 
L 4122 359 
Q 3791 134 3420 21 
Q 3050 -91 2638 -91 
Q 1578 -91 968 557 
Q 359 1206 359 2328 
Q 359 3453 968 4101 
Q 1578 4750 2638 4750 
Q 3056 4750 3426 4639 
Q 3797 4528 4122 4306 
z
" transform="scale(0.015625)"/>
      <path id="DejaVuSans-2c" d="M 628 4666 
L 1259 4666 
L 1259 0 
L 628 0 
L 628 4666 
z
" transform="scale(0.015625)"/>
      <path id="DejaVuSans-3e" d="M 550 4863 
L 1875 4863 
L 1875 4416 
L 1125 4416 
L 1125 -397 
L 1875 -397 
L 1875 -844 
L 550 -844 
L 550 4863 
z
" transform="scale(0.015625)"/>
      <path id="DejaVuSans-f" d="M 750 794 
L 1409 794 
L 1409 256 
L 897 -744 
L 494 -744 
L 750 256 
L 750 794 
z
" transform="scale(0.015625)"/>
      <path id="DejaVuSans-15" d="M 1228 531 
L 3431 531 
L 3431 0 
L 469 0 
L 469 531 
Q 828 903 1448 1529 
Q 2069 2156 2228 2338 
Q 2531 2678 2651 2914 
Q 2772 3150 2772 3378 
Q 2772 3750 2511 3984 
Q 2250 4219 1831 4219 
Q 1534 4219 1204 4116 
Q 875 4013 500 3803 
L 500 4441 
Q 881 4594 1212 4672 
Q 1544 4750 1819 4750 
Q 2544 4750 2975 4387 
Q 3406 4025 3406 3419 
Q 3406 3131 3298 2873 
Q 3191 2616 2906 2266 
Q 2828 2175 2409 1742 
Q 1991 1309 1228 531 
z
" transform="scale(0.015625)"/>
      <path id="DejaVuSans-40" d="M 1947 4863 
L 1947 -844 
L 622 -844 
L 622 -397 
L 1369 -397 
L 1369 4416 
L 622 4416 
L 622 4863 
L 1947 4863 
z
" transform="scale(0.015625)"/>
      <path id="DejaVuSans-12" d="M 1625 4666 
L 2156 4666 
L 531 -594 
L 0 -594 
L 1625 4666 
z
" transform="scale(0.015625)"/>
      <path id="DejaVuSans-53" d="M 1159 525 
L 1159 -1331 
L 581 -1331 
L 581 3500 
L 1159 3500 
L 1159 2969 
Q 1341 3281 1617 3432 
Q 1894 3584 2278 3584 
Q 2916 3584 3314 3078 
Q 3713 2572 3713 1747 
Q 3713 922 3314 415 
Q 2916 -91 2278 -91 
Q 1894 -91 1617 61 
Q 1341 213 1159 525 
z
M 3116 1747 
Q 3116 2381 2855 2742 
Q 2594 3103 2138 3103 
Q 1681 3103 1420 2742 
Q 1159 2381 1159 1747 
Q 1159 1113 1420 752 
Q 1681 391 2138 391 
Q 2594 391 2855 752 
Q 3116 1113 3116 1747 
z
" transform="scale(0.015625)"/>
      <path id="DejaVuSans-59" d="M 191 3500 
L 800 3500 
L 1894 563 
L 2988 3500 
L 3597 3500 
L 2284 0 
L 1503 0 
L 191 3500 
z
" transform="scale(0.015625)"/>
     </defs>
     <use xlink:href="#DejaVuSans-b"/>
     <use xlink:href="#DejaVuSans-1c" transform="translate(39.015625 0)"/>
     <use xlink:href="#DejaVuSans-18" transform="translate(102.640625 0)"/>
     <use xlink:href="#DejaVuSans-8" transform="translate(166.265625 0)"/>
     <use xlink:href="#DejaVuSans-3" transform="translate(261.28125 0)"/>
     <use xlink:href="#DejaVuSans-26" transform="translate(293.0625 0)"/>
     <use xlink:href="#DejaVuSans-2c" transform="translate(362.890625 0)"/>
     <use xlink:href="#DejaVuSans-3" transform="translate(392.390625 0)"/>
     <use xlink:href="#DejaVuSans-3e" transform="translate(424.171875 0)"/>
     <use xlink:href="#DejaVuSans-e" transform="translate(463.1875 0)"/>
     <use xlink:href="#DejaVuSans-13" transform="translate(546.984375 0)"/>
     <use xlink:href="#DejaVuSans-11" transform="translate(610.609375 0)"/>
     <use xlink:href="#DejaVuSans-13" transform="translate(642.390625 0)"/>
     <use xlink:href="#DejaVuSans-13" transform="translate(706.015625 0)"/>
     <use xlink:href="#DejaVuSans-17" transform="translate(769.640625 0)"/>
     <use xlink:href="#DejaVuSans-17" transform="translate(833.265625 0)"/>
     <use xlink:href="#DejaVuSans-f" transform="translate(896.890625 0)"/>
     <use xlink:href="#DejaVuSans-3" transform="translate(928.671875 0)"/>
     <use xlink:href="#DejaVuSans-e" transform="translate(960.453125 0)"/>
     <use xlink:href="#DejaVuSans-13" transform="translate(1044.25 0)"/>
     <use xlink:href="#DejaVuSans-11" transform="translate(1107.875 0)"/>
     <use xlink:href="#DejaVuSans-13" transform="translate(1139.65625 0)"/>
     <use xlink:href="#DejaVuSans-15" transform="translate(1203.28125 0)"/>
     <use xlink:href="#DejaVuSans-1b" transform="translate(1266.90625 0)"/>
     <use xlink:href="#DejaVuSans-1b" transform="translate(1330.53125 0)"/>
     <use xlink:href="#DejaVuSans-40" transform="translate(1394.15625 0)"/>
     <use xlink:href="#DejaVuSans-f" transform="translate(1433.171875 0)"/>
     <use xlink:href="#DejaVuSans-3" transform="translate(1464.953125 0)"/>
     <use xlink:href="#DejaVuSans-14" transform="translate(1496.734375 0)"/>
     <use xlink:href="#DejaVuSans-13" transform="translate(1560.359375 0)"/>
     <use xlink:href="#DejaVuSans-12" transform="translate(1623.984375 0)"/>
     <use xlink:href="#DejaVuSans-14" transform="translate(1657.671875 0)"/>
     <use xlink:href="#DejaVuSans-15" transform="translate(1721.296875 0)"/>
     <use xlink:href="#DejaVuSans-3" transform="translate(1784.921875 0)"/>
     <use xlink:href="#DejaVuSans-4c" transform="translate(1816.703125 0)"/>
     <use xlink:href="#DejaVuSans-50" transform="translate(1844.484375 0)"/>
     <use xlink:href="#DejaVuSans-53" transform="translate(1941.890625 0)"/>
     <use xlink:href="#DejaVuSans-55" transform="translate(2005.375 0)"/>
     <use xlink:href="#DejaVuSans-52" transform="translate(2044.28125 0)"/>
     <use xlink:href="#DejaVuSans-59" transform="translate(2105.46875 0)"/>
     <use xlink:href="#DejaVuSans-48" transform="translate(2164.65625 0)"/>
     <use xlink:href="#DejaVuSans-47" transform="translate(2226.1875 0)"/>
     <use xlink:href="#DejaVuSans-c" transform="translate(2289.671875 0)"/>
    </g>
   </g>
  </g>
  <g id="axes_2">
   <g id="patch_5">
    <path d="M 345.864359 246.432266 
L 576.734876 246.432266 
L 576.734876 59.07501 
L 345.864359 59.07501 
z
" style="fill: #ffffff"/>
   </g>
   <g id="matplotlib.axis_3">
    <g id="xtick_3">
     <g id="line2d_22">
      <g>
       <use xlink:href="#m7c0f51f33a" x="356.358473" y="246.432266" style="stroke: #000000; stroke-width: 0.8"/>
      </g>
     </g>
     <g id="text_12">
      <!-- best of 4 -->
      <g transform="translate(336.563395 261.171738) scale(0.09 -0.09)">
       <use xlink:href="#DejaVuSans-45"/>
       <use xlink:href="#DejaVuSans-48" transform="translate(63.484375 0)"/>
       <use xlink:href="#DejaVuSans-56" transform="translate(125.015625 0)"/>
       <use xlink:href="#DejaVuSans-57" transform="translate(177.109375 0)"/>
       <use xlink:href="#DejaVuSans-3" transform="translate(216.3125 0)"/>
       <use xlink:href="#DejaVuSans-52" transform="translate(248.09375 0)"/>
       <use xlink:href="#DejaVuSans-49" transform="translate(309.28125 0)"/>
       <use xlink:href="#DejaVuSans-3" transform="translate(344.484375 0)"/>
       <use xlink:href="#DejaVuSans-17" transform="translate(376.265625 0)"/>
      </g>
      <!-- warm starts -->
      <g transform="translate(329.511755 271.973496) scale(0.09 -0.09)">
       <use xlink:href="#DejaVuSans-5a"/>
       <use xlink:href="#DejaVuSans-44" transform="translate(81.78125 0)"/>
       <use xlink:href="#DejaVuSans-55" transform="translate(143.0625 0)"/>
       <use xlink:href="#DejaVuSans-50" transform="translate(182.421875 0)"/>
       <use xlink:href="#DejaVuSans-3" transform="translate(279.828125 0)"/>
       <use xlink:href="#DejaVuSans-56" transform="translate(311.609375 0)"/>
       <use xlink:href="#DejaVuSans-57" transform="translate(363.703125 0)"/>
       <use xlink:href="#DejaVuSans-44" transform="translate(402.90625 0)"/>
       <use xlink:href="#DejaVuSans-55" transform="translate(464.1875 0)"/>
       <use xlink:href="#DejaVuSans-57" transform="translate(505.296875 0)"/>
       <use xlink:href="#DejaVuSans-56" transform="translate(544.5 0)"/>
      </g>
     </g>
    </g>
    <g id="xtick_4">
     <g id="line2d_23">
      <g>
       <use xlink:href="#m7c0f51f33a" x="566.240762" y="246.432266" style="stroke: #000000; stroke-width: 0.8"/>
      </g>
     </g>
     <g id="text_13">
      <!-- final selected -->
      <g transform="translate(536.120293 261.171738) scale(0.09 -0.09)">
       <use xlink:href="#DejaVuSans-13af"/>
       <use xlink:href="#DejaVuSans-51" transform="translate(62.984375 0)"/>
       <use xlink:href="#DejaVuSans-44" transform="translate(126.359375 0)"/>
       <use xlink:href="#DejaVuSans-4f" transform="translate(187.640625 0)"/>
       <use xlink:href="#DejaVuSans-3" transform="translate(215.421875 0)"/>
       <use xlink:href="#DejaVuSans-56" transform="translate(247.203125 0)"/>
       <use xlink:href="#DejaVuSans-48" transform="translate(299.296875 0)"/>
       <use xlink:href="#DejaVuSans-4f" transform="translate(360.828125 0)"/>
       <use xlink:href="#DejaVuSans-48" transform="translate(388.609375 0)"/>
       <use xlink:href="#DejaVuSans-46" transform="translate(450.140625 0)"/>
       <use xlink:href="#DejaVuSans-57" transform="translate(505.125 0)"/>
       <use xlink:href="#DejaVuSans-48" transform="translate(544.328125 0)"/>
       <use xlink:href="#DejaVuSans-47" transform="translate(605.859375 0)"/>
      </g>
      <!-- (after refinement) -->
      <g transform="translate(525.910215 271.974199) scale(0.09 -0.09)">
       <use xlink:href="#DejaVuSans-b"/>
       <use xlink:href="#DejaVuSans-44" transform="translate(39.015625 0)"/>
       <use xlink:href="#DejaVuSans-49" transform="translate(100.296875 0)"/>
       <use xlink:href="#DejaVuSans-57" transform="translate(133.75 0)"/>
       <use xlink:href="#DejaVuSans-48" transform="translate(172.953125 0)"/>
       <use xlink:href="#DejaVuSans-55" transform="translate(234.484375 0)"/>
       <use xlink:href="#DejaVuSans-3" transform="translate(275.59375 0)"/>
       <use xlink:href="#DejaVuSans-55" transform="translate(307.375 0)"/>
       <use xlink:href="#DejaVuSans-48" transform="translate(346.28125 0)"/>
       <use xlink:href="#DejaVuSans-13af" transform="translate(407.8125 0)"/>
       <use xlink:href="#DejaVuSans-51" transform="translate(470.796875 0)"/>
       <use xlink:href="#DejaVuSans-48" transform="translate(534.171875 0)"/>
       <use xlink:href="#DejaVuSans-50" transform="translate(595.703125 0)"/>
       <use xlink:href="#DejaVuSans-48" transform="translate(693.109375 0)"/>
       <use xlink:href="#DejaVuSans-51" transform="translate(754.640625 0)"/>
       <use xlink:href="#DejaVuSans-57" transform="translate(818.015625 0)"/>
       <use xlink:href="#DejaVuSans-c" transform="translate(857.21875 0)"/>
      </g>
     </g>
    </g>
   </g>
   <g id="matplotlib.axis_4">
    <g id="ytick_8">
     <g id="line2d_24">
      <g>
       <use xlink:href="#m19f12644af" x="345.864359" y="222.767912" style="stroke: #000000; stroke-width: 0.8"/>
      </g>
     </g>
    </g>
    <g id="ytick_9">
     <g id="line2d_25">
      <g>
       <use xlink:href="#m19f12644af" x="345.864359" y="199.077" style="stroke: #000000; stroke-width: 0.8"/>
      </g>
     </g>
    </g>
    <g id="ytick_10">
     <g id="line2d_26">
      <g>
       <use xlink:href="#m19f12644af" x="345.864359" y="175.386087" style="stroke: #000000; stroke-width: 0.8"/>
      </g>
     </g>
    </g>
    <g id="ytick_11">
     <g id="line2d_27">
      <g>
       <use xlink:href="#m19f12644af" x="345.864359" y="151.695175" style="stroke: #000000; stroke-width: 0.8"/>
      </g>
     </g>
    </g>
    <g id="ytick_12">
     <g id="line2d_28">
      <g>
       <use xlink:href="#m19f12644af" x="345.864359" y="128.004263" style="stroke: #000000; stroke-width: 0.8"/>
      </g>
     </g>
    </g>
    <g id="ytick_13">
     <g id="line2d_29">
      <g>
       <use xlink:href="#m19f12644af" x="345.864359" y="104.313351" style="stroke: #000000; stroke-width: 0.8"/>
      </g>
     </g>
    </g>
    <g id="ytick_14">
     <g id="line2d_30">
      <g>
       <use xlink:href="#m19f12644af" x="345.864359" y="80.622439" style="stroke: #000000; stroke-width: 0.8"/>
      </g>
     </g>
    </g>
   </g>
   <g id="line2d_31">
    <path d="M 356.358473 83.881369 
L 566.240762 77.191216 
" clip-path="url(#p4bc6f86556)" style="fill: none; stroke: #1a73e8; stroke-opacity: 0.75; stroke-width: 1.2; stroke-linecap: square"/>
    <g clip-path="url(#p4bc6f86556)">
     <use xlink:href="#mb33a1fb732" x="356.358473" y="83.881369" style="fill: #1a73e8; fill-opacity: 0.75; stroke: #1a73e8; stroke-opacity: 0.75"/>
     <use xlink:href="#mb33a1fb732" x="566.240762" y="77.191216" style="fill: #1a73e8; fill-opacity: 0.75; stroke: #1a73e8; stroke-opacity: 0.75"/>
    </g>
   </g>
   <g id="line2d_32">
    <path d="M 356.358473 70.690099 
L 566.240762 70.690099 
" clip-path="url(#p4bc6f86556)" style="fill: none; stroke: #9aa0a6; stroke-opacity: 0.75; stroke-width: 1.2; stroke-linecap: square"/>
    <g clip-path="url(#p4bc6f86556)">
     <use xlink:href="#m25bbde2909" x="356.358473" y="70.690099" style="fill: #9aa0a6; fill-opacity: 0.75; stroke: #9aa0a6; stroke-opacity: 0.75"/>
     <use xlink:href="#m25bbde2909" x="566.240762" y="70.690099" style="fill: #9aa0a6; fill-opacity: 0.75; stroke: #9aa0a6; stroke-opacity: 0.75"/>
    </g>
   </g>
   <g id="line2d_33">
    <path d="M 356.358473 108.844484 
L 566.240762 71.034742 
" clip-path="url(#p4bc6f86556)" style="fill: none; stroke: #1a73e8; stroke-opacity: 0.75; stroke-width: 1.2; stroke-linecap: square"/>
    <g clip-path="url(#p4bc6f86556)">
     <use xlink:href="#mb33a1fb732" x="356.358473" y="108.844484" style="fill: #1a73e8; fill-opacity: 0.75; stroke: #1a73e8; stroke-opacity: 0.75"/>
     <use xlink:href="#mb33a1fb732" x="566.240762" y="71.034742" style="fill: #1a73e8; fill-opacity: 0.75; stroke: #1a73e8; stroke-opacity: 0.75"/>
    </g>
   </g>
   <g id="line2d_34">
    <path d="M 356.358473 86.282254 
L 566.240762 67.591249 
" clip-path="url(#p4bc6f86556)" style="fill: none; stroke: #1a73e8; stroke-opacity: 0.75; stroke-width: 1.2; stroke-linecap: square"/>
    <g clip-path="url(#p4bc6f86556)">
     <use xlink:href="#mb33a1fb732" x="356.358473" y="86.282254" style="fill: #1a73e8; fill-opacity: 0.75; stroke: #1a73e8; stroke-opacity: 0.75"/>
     <use xlink:href="#mb33a1fb732" x="566.240762" y="67.591249" style="fill: #1a73e8; fill-opacity: 0.75; stroke: #1a73e8; stroke-opacity: 0.75"/>
    </g>
   </g>
   <g id="line2d_35">
    <path d="M 356.358473 75.770957 
L 566.240762 75.770957 
" clip-path="url(#p4bc6f86556)" style="fill: none; stroke: #9aa0a6; stroke-opacity: 0.75; stroke-width: 1.2; stroke-linecap: square"/>
    <g clip-path="url(#p4bc6f86556)">
     <use xlink:href="#m25bbde2909" x="356.358473" y="75.770957" style="fill: #9aa0a6; fill-opacity: 0.75; stroke: #9aa0a6; stroke-opacity: 0.75"/>
     <use xlink:href="#m25bbde2909" x="566.240762" y="75.770957" style="fill: #9aa0a6; fill-opacity: 0.75; stroke: #9aa0a6; stroke-opacity: 0.75"/>
    </g>
   </g>
   <g id="line2d_36">
    <path d="M 356.358473 70.610185 
L 566.240762 70.610185 
" clip-path="url(#p4bc6f86556)" style="fill: none; stroke: #9aa0a6; stroke-opacity: 0.75; stroke-width: 1.2; stroke-linecap: square"/>
    <g clip-path="url(#p4bc6f86556)">
     <use xlink:href="#m25bbde2909" x="356.358473" y="70.610185" style="fill: #9aa0a6; fill-opacity: 0.75; stroke: #9aa0a6; stroke-opacity: 0.75"/>
     <use xlink:href="#m25bbde2909" x="566.240762" y="70.610185" style="fill: #9aa0a6; fill-opacity: 0.75; stroke: #9aa0a6; stroke-opacity: 0.75"/>
    </g>
   </g>
   <g id="line2d_37">
    <path d="M 356.358473 75.513887 
L 566.240762 75.513887 
" clip-path="url(#p4bc6f86556)" style="fill: none; stroke: #9aa0a6; stroke-opacity: 0.75; stroke-width: 1.2; stroke-linecap: square"/>
    <g clip-path="url(#p4bc6f86556)">
     <use xlink:href="#m25bbde2909" x="356.358473" y="75.513887" style="fill: #9aa0a6; fill-opacity: 0.75; stroke: #9aa0a6; stroke-opacity: 0.75"/>
     <use xlink:href="#m25bbde2909" x="566.240762" y="75.513887" style="fill: #9aa0a6; fill-opacity: 0.75; stroke: #9aa0a6; stroke-opacity: 0.75"/>
    </g>
   </g>
   <g id="line2d_38">
    <path d="M 356.358473 73.064593 
L 566.240762 72.919414 
" clip-path="url(#p4bc6f86556)" style="fill: none; stroke: #1a73e8; stroke-opacity: 0.75; stroke-width: 1.2; stroke-linecap: square"/>
    <g clip-path="url(#p4bc6f86556)">
     <use xlink:href="#mb33a1fb732" x="356.358473" y="73.064593" style="fill: #1a73e8; fill-opacity: 0.75; stroke: #1a73e8; stroke-opacity: 0.75"/>
     <use xlink:href="#mb33a1fb732" x="566.240762" y="72.919414" style="fill: #1a73e8; fill-opacity: 0.75; stroke: #1a73e8; stroke-opacity: 0.75"/>
    </g>
   </g>
   <g id="line2d_39">
    <path d="M 356.358473 85.767334 
L 566.240762 77.104865 
" clip-path="url(#p4bc6f86556)" style="fill: none; stroke: #1a73e8; stroke-opacity: 0.75; stroke-width: 1.2; stroke-linecap: square"/>
    <g clip-path="url(#p4bc6f86556)">
     <use xlink:href="#mb33a1fb732" x="356.358473" y="85.767334" style="fill: #1a73e8; fill-opacity: 0.75; stroke: #1a73e8; stroke-opacity: 0.75"/>
     <use xlink:href="#mb33a1fb732" x="566.240762" y="77.104865" style="fill: #1a73e8; fill-opacity: 0.75; stroke: #1a73e8; stroke-opacity: 0.75"/>
    </g>
   </g>
   <g id="line2d_40">
    <path d="M 356.358473 70.832164 
L 566.240762 70.832164 
" clip-path="url(#p4bc6f86556)" style="fill: none; stroke: #9aa0a6; stroke-opacity: 0.75; stroke-width: 1.2; stroke-linecap: square"/>
    <g clip-path="url(#p4bc6f86556)">
     <use xlink:href="#m25bbde2909" x="356.358473" y="70.832164" style="fill: #9aa0a6; fill-opacity: 0.75; stroke: #9aa0a6; stroke-opacity: 0.75"/>
     <use xlink:href="#m25bbde2909" x="566.240762" y="70.832164" style="fill: #9aa0a6; fill-opacity: 0.75; stroke: #9aa0a6; stroke-opacity: 0.75"/>
    </g>
   </g>
   <g id="line2d_41">
    <path d="M 356.358473 71.150006 
L 566.240762 71.150006 
" clip-path="url(#p4bc6f86556)" style="fill: none; stroke: #9aa0a6; stroke-opacity: 0.75; stroke-width: 1.2; stroke-linecap: square"/>
    <g clip-path="url(#p4bc6f86556)">
     <use xlink:href="#m25bbde2909" x="356.358473" y="71.150006" style="fill: #9aa0a6; fill-opacity: 0.75; stroke: #9aa0a6; stroke-opacity: 0.75"/>
     <use xlink:href="#m25bbde2909" x="566.240762" y="71.150006" style="fill: #9aa0a6; fill-opacity: 0.75; stroke: #9aa0a6; stroke-opacity: 0.75"/>
    </g>
   </g>
   <g id="line2d_42">
    <path d="M 356.358473 78.956565 
L 566.240762 69.89557 
" clip-path="url(#p4bc6f86556)" style="fill: none; stroke: #1a73e8; stroke-opacity: 0.75; stroke-width: 1.2; stroke-linecap: square"/>
    <g clip-path="url(#p4bc6f86556)">
     <use xlink:href="#mb33a1fb732" x="356.358473" y="78.956565" style="fill: #1a73e8; fill-opacity: 0.75; stroke: #1a73e8; stroke-opacity: 0.75"/>
     <use xlink:href="#mb33a1fb732" x="566.240762" y="69.89557" style="fill: #1a73e8; fill-opacity: 0.75; stroke: #1a73e8; stroke-opacity: 0.75"/>
    </g>
   </g>
   <g id="patch_6">
    <path d="M 345.864359 246.432266 
L 345.864359 59.07501 
" style="fill: none; stroke: #000000; stroke-width: 0.8; stroke-linejoin: miter; stroke-linecap: square"/>
   </g>
   <g id="patch_7">
    <path d="M 345.864359 246.432266 
L 576.734876 246.432266 
" style="fill: none; stroke: #000000; stroke-width: 0.8; stroke-linejoin: miter; stroke-linecap: square"/>
   </g>
   <g id="text_14">
    <!-- LLM-Closed: refinement gain +0.0143 -->
    <g transform="translate(371.134969 41.672412) scale(0.095 -0.095)">
     <defs>
      <path id="DejaVuSans-2f" d="M 628 4666 
L 1259 4666 
L 1259 531 
L 3531 531 
L 3531 0 
L 628 0 
L 628 4666 
z
" transform="scale(0.015625)"/>
      <path id="DejaVuSans-30" d="M 628 4666 
L 1569 4666 
L 2759 1491 
L 3956 4666 
L 4897 4666 
L 4897 0 
L 4281 0 
L 4281 4097 
L 3078 897 
L 2444 897 
L 1241 4097 
L 1241 0 
L 628 0 
L 628 4666 
z
" transform="scale(0.015625)"/>
      <path id="DejaVuSans-16" d="M 2597 2516 
Q 3050 2419 3304 2112 
Q 3559 1806 3559 1356 
Q 3559 666 3084 287 
Q 2609 -91 1734 -91 
Q 1441 -91 1130 -33 
Q 819 25 488 141 
L 488 750 
Q 750 597 1062 519 
Q 1375 441 1716 441 
Q 2309 441 2620 675 
Q 2931 909 2931 1356 
Q 2931 1769 2642 2001 
Q 2353 2234 1838 2234 
L 1294 2234 
L 1294 2753 
L 1863 2753 
Q 2328 2753 2575 2939 
Q 2822 3125 2822 3475 
Q 2822 3834 2567 4026 
Q 2313 4219 1838 4219 
Q 1578 4219 1281 4162 
Q 984 4106 628 3988 
L 628 4550 
Q 988 4650 1302 4700 
Q 1616 4750 1894 4750 
Q 2613 4750 3031 4423 
Q 3450 4097 3450 3541 
Q 3450 3153 3228 2886 
Q 3006 2619 2597 2516 
z
" transform="scale(0.015625)"/>
     </defs>
     <use xlink:href="#DejaVuSans-2f"/>
     <use xlink:href="#DejaVuSans-2f" transform="translate(55.71875 0)"/>
     <use xlink:href="#DejaVuSans-30" transform="translate(111.4375 0)"/>
     <use xlink:href="#DejaVuSans-10" transform="translate(197.71875 0)"/>
     <use xlink:href="#DejaVuSans-26" transform="translate(233.796875 0)"/>
     <use xlink:href="#DejaVuSans-4f" transform="translate(303.625 0)"/>
     <use xlink:href="#DejaVuSans-52" transform="translate(331.40625 0)"/>
     <use xlink:href="#DejaVuSans-56" transform="translate(392.59375 0)"/>
     <use xlink:href="#DejaVuSans-48" transform="translate(444.6875 0)"/>
     <use xlink:href="#DejaVuSans-47" transform="translate(506.21875 0)"/>
     <use xlink:href="#DejaVuSans-1d" transform="translate(569.703125 0)"/>
     <use xlink:href="#DejaVuSans-3" transform="translate(603.390625 0)"/>
     <use xlink:href="#DejaVuSans-55" transform="translate(635.171875 0)"/>
     <use xlink:href="#DejaVuSans-48" transform="translate(674.078125 0)"/>
     <use xlink:href="#DejaVuSans-13af" transform="translate(735.609375 0)"/>
     <use xlink:href="#DejaVuSans-51" transform="translate(798.59375 0)"/>
     <use xlink:href="#DejaVuSans-48" transform="translate(861.96875 0)"/>
     <use xlink:href="#DejaVuSans-50" transform="translate(923.5 0)"/>
     <use xlink:href="#DejaVuSans-48" transform="translate(1020.90625 0)"/>
     <use xlink:href="#DejaVuSans-51" transform="translate(1082.4375 0)"/>
     <use xlink:href="#DejaVuSans-57" transform="translate(1145.8125 0)"/>
     <use xlink:href="#DejaVuSans-3" transform="translate(1185.015625 0)"/>
     <use xlink:href="#DejaVuSans-4a" transform="translate(1216.796875 0)"/>
     <use xlink:href="#DejaVuSans-44" transform="translate(1280.28125 0)"/>
     <use xlink:href="#DejaVuSans-4c" transform="translate(1341.5625 0)"/>
     <use xlink:href="#DejaVuSans-51" transform="translate(1369.34375 0)"/>
     <use xlink:href="#DejaVuSans-3" transform="translate(1432.71875 0)"/>
     <use xlink:href="#DejaVuSans-e" transform="translate(1464.5 0)"/>
     <use xlink:href="#DejaVuSans-13" transform="translate(1548.296875 0)"/>
     <use xlink:href="#DejaVuSans-11" transform="translate(1611.921875 0)"/>
     <use xlink:href="#DejaVuSans-13" transform="translate(1643.703125 0)"/>
     <use xlink:href="#DejaVuSans-14" transform="translate(1707.328125 0)"/>
     <use xlink:href="#DejaVuSans-17" transform="translate(1770.953125 0)"/>
     <use xlink:href="#DejaVuSans-16" transform="translate(1834.578125 0)"/>
    </g>
    <!-- (95% CI [+0.0032, +0.0287], 6/12 improved) -->
    <g transform="translate(353.709149 53.07501) scale(0.095 -0.095)">
     <use xlink:href="#DejaVuSans-b"/>
     <use xlink:href="#DejaVuSans-1c" transform="translate(39.015625 0)"/>
     <use xlink:href="#DejaVuSans-18" transform="translate(102.640625 0)"/>
     <use xlink:href="#DejaVuSans-8" transform="translate(166.265625 0)"/>
     <use xlink:href="#DejaVuSans-3" transform="translate(261.28125 0)"/>
     <use xlink:href="#DejaVuSans-26" transform="translate(293.0625 0)"/>
     <use xlink:href="#DejaVuSans-2c" transform="translate(362.890625 0)"/>
     <use xlink:href="#DejaVuSans-3" transform="translate(392.390625 0)"/>
     <use xlink:href="#DejaVuSans-3e" transform="translate(424.171875 0)"/>
     <use xlink:href="#DejaVuSans-e" transform="translate(463.1875 0)"/>
     <use xlink:href="#DejaVuSans-13" transform="translate(546.984375 0)"/>
     <use xlink:href="#DejaVuSans-11" transform="translate(610.609375 0)"/>
     <use xlink:href="#DejaVuSans-13" transform="translate(642.390625 0)"/>
     <use xlink:href="#DejaVuSans-13" transform="translate(706.015625 0)"/>
     <use xlink:href="#DejaVuSans-16" transform="translate(769.640625 0)"/>
     <use xlink:href="#DejaVuSans-15" transform="translate(833.265625 0)"/>
     <use xlink:href="#DejaVuSans-f" transform="translate(896.890625 0)"/>
     <use xlink:href="#DejaVuSans-3" transform="translate(928.671875 0)"/>
     <use xlink:href="#DejaVuSans-e" transform="translate(960.453125 0)"/>
     <use xlink:href="#DejaVuSans-13" transform="translate(1044.25 0)"/>
     <use xlink:href="#DejaVuSans-11" transform="translate(1107.875 0)"/>
     <use xlink:href="#DejaVuSans-13" transform="translate(1139.65625 0)"/>
     <use xlink:href="#DejaVuSans-15" transform="translate(1203.28125 0)"/>
     <use xlink:href="#DejaVuSans-1b" transform="translate(1266.90625 0)"/>
     <use xlink:href="#DejaVuSans-1a" transform="translate(1330.53125 0)"/>
     <use xlink:href="#DejaVuSans-40" transform="translate(1394.15625 0)"/>
     <use xlink:href="#DejaVuSans-f" transform="translate(1433.171875 0)"/>
     <use xlink:href="#DejaVuSans-3" transform="translate(1464.953125 0)"/>
     <use xlink:href="#DejaVuSans-19" transform="translate(1496.734375 0)"/>
     <use xlink:href="#DejaVuSans-12" transform="translate(1560.359375 0)"/>
     <use xlink:href="#DejaVuSans-14" transform="translate(1594.046875 0)"/>
     <use xlink:href="#DejaVuSans-15" transform="translate(1657.671875 0)"/>
     <use xlink:href="#DejaVuSans-3" transform="translate(1721.296875 0)"/>
     <use xlink:href="#DejaVuSans-4c" transform="translate(1753.078125 0)"/>
     <use xlink:href="#DejaVuSans-50" transform="translate(1780.859375 0)"/>
     <use xlink:href="#DejaVuSans-53" transform="translate(1878.265625 0)"/>
     <use xlink:href="#DejaVuSans-55" transform="translate(1941.75 0)"/>
     <use xlink:href="#DejaVuSans-52" transform="translate(1980.65625 0)"/>
     <use xlink:href="#DejaVuSans-59" transform="translate(2041.84375 0)"/>
     <use xlink:href="#DejaVuSans-48" transform="translate(2101.03125 0)"/>
     <use xlink:href="#DejaVuSans-47" transform="translate(2162.5625 0)"/>
     <use xlink:href="#DejaVuSans-c" transform="translate(2226.046875 0)"/>
    </g>
   </g>
  </g>
  <g id="text_15">
   <!-- Did the 4 refinement evaluations add value after the warm start? (blue = improved, grey = unchanged/worse) -->
   <g transform="translate(18.769687 13.738359) scale(0.105 -0.105)">
    <defs>
     <path id="DejaVuSans-27" d="M 1259 4147 
L 1259 519 
L 2022 519 
Q 2988 519 3436 956 
Q 3884 1394 3884 2338 
Q 3884 3275 3436 3711 
Q 2988 4147 2022 4147 
L 1259 4147 
z
M 628 4666 
L 1925 4666 
Q 3281 4666 3915 4102 
Q 4550 3538 4550 2338 
Q 4550 1131 3912 565 
Q 3275 0 1925 0 
L 628 0 
L 628 4666 
z
" transform="scale(0.015625)"/>
     <path id="DejaVuSans-22" d="M 1222 794 
L 1856 794 
L 1856 0 
L 1222 0 
L 1222 794 
z
M 1838 1253 
L 1241 1253 
L 1241 1734 
Q 1241 2050 1328 2253 
Q 1416 2456 1697 2725 
L 1978 3003 
Q 2156 3169 2236 3316 
Q 2316 3463 2316 3616 
Q 2316 3894 2111 4066 
Q 1906 4238 1569 4238 
Q 1322 4238 1042 4128 
Q 763 4019 459 3809 
L 459 4397 
Q 753 4575 1054 4662 
Q 1356 4750 1678 4750 
Q 2253 4750 2601 4447 
Q 2950 4144 2950 3647 
Q 2950 3409 2837 3195 
Q 2725 2981 2444 2713 
L 2169 2444 
Q 2022 2297 1961 2214 
Q 1900 2131 1875 2053 
Q 1856 1988 1847 1894 
Q 1838 1800 1838 1638 
L 1838 1253 
z
" transform="scale(0.015625)"/>
     <path id="DejaVuSans-20" d="M 678 2906 
L 4684 2906 
L 4684 2381 
L 678 2381 
L 678 2906 
z
M 678 1631 
L 4684 1631 
L 4684 1100 
L 678 1100 
L 678 1631 
z
" transform="scale(0.015625)"/>
    </defs>
    <use xlink:href="#DejaVuSans-27"/>
    <use xlink:href="#DejaVuSans-4c" transform="translate(77 0)"/>
    <use xlink:href="#DejaVuSans-47" transform="translate(104.78125 0)"/>
    <use xlink:href="#DejaVuSans-3" transform="translate(168.265625 0)"/>
    <use xlink:href="#DejaVuSans-57" transform="translate(200.046875 0)"/>
    <use xlink:href="#DejaVuSans-4b" transform="translate(239.25 0)"/>
    <use xlink:href="#DejaVuSans-48" transform="translate(302.625 0)"/>
    <use xlink:href="#DejaVuSans-3" transform="translate(364.15625 0)"/>
    <use xlink:href="#DejaVuSans-17" transform="translate(395.9375 0)"/>
    <use xlink:href="#DejaVuSans-3" transform="translate(459.5625 0)"/>
    <use xlink:href="#DejaVuSans-55" transform="translate(491.34375 0)"/>
    <use xlink:href="#DejaVuSans-48" transform="translate(530.25 0)"/>
    <use xlink:href="#DejaVuSans-13af" transform="translate(591.78125 0)"/>
    <use xlink:href="#DejaVuSans-51" transform="translate(654.765625 0)"/>
    <use xlink:href="#DejaVuSans-48" transform="translate(718.140625 0)"/>
    <use xlink:href="#DejaVuSans-50" transform="translate(779.671875 0)"/>
    <use xlink:href="#DejaVuSans-48" transform="translate(877.078125 0)"/>
    <use xlink:href="#DejaVuSans-51" transform="translate(938.609375 0)"/>
    <use xlink:href="#DejaVuSans-57" transform="translate(1001.984375 0)"/>
    <use xlink:href="#DejaVuSans-3" transform="translate(1041.1875 0)"/>
    <use xlink:href="#DejaVuSans-48" transform="translate(1072.96875 0)"/>
    <use xlink:href="#DejaVuSans-59" transform="translate(1134.5 0)"/>
    <use xlink:href="#DejaVuSans-44" transform="translate(1193.6875 0)"/>
    <use xlink:href="#DejaVuSans-4f" transform="translate(1254.96875 0)"/>
    <use xlink:href="#DejaVuSans-58" transform="translate(1282.75 0)"/>
    <use xlink:href="#DejaVuSans-44" transform="translate(1346.125 0)"/>
    <use xlink:href="#DejaVuSans-57" transform="translate(1407.40625 0)"/>
    <use xlink:href="#DejaVuSans-4c" transform="translate(1446.609375 0)"/>
    <use xlink:href="#DejaVuSans-52" transform="translate(1474.390625 0)"/>
    <use xlink:href="#DejaVuSans-51" transform="translate(1535.578125 0)"/>
    <use xlink:href="#DejaVuSans-56" transform="translate(1598.953125 0)"/>
    <use xlink:href="#DejaVuSans-3" transform="translate(1651.046875 0)"/>
    <use xlink:href="#DejaVuSans-44" transform="translate(1682.828125 0)"/>
    <use xlink:href="#DejaVuSans-47" transform="translate(1744.109375 0)"/>
    <use xlink:href="#DejaVuSans-47" transform="translate(1807.59375 0)"/>
    <use xlink:href="#DejaVuSans-3" transform="translate(1871.078125 0)"/>
    <use xlink:href="#DejaVuSans-59" transform="translate(1902.859375 0)"/>
    <use xlink:href="#DejaVuSans-44" transform="translate(1962.046875 0)"/>
    <use xlink:href="#DejaVuSans-4f" transform="translate(2023.328125 0)"/>
    <use xlink:href="#DejaVuSans-58" transform="translate(2051.109375 0)"/>
    <use xlink:href="#DejaVuSans-48" transform="translate(2114.484375 0)"/>
    <use xlink:href="#DejaVuSans-3" transform="translate(2176.015625 0)"/>
    <use xlink:href="#DejaVuSans-44" transform="translate(2207.796875 0)"/>
    <use xlink:href="#DejaVuSans-49" transform="translate(2269.078125 0)"/>
    <use xlink:href="#DejaVuSans-57" transform="translate(2302.53125 0)"/>
    <use xlink:href="#DejaVuSans-48" transform="translate(2341.734375 0)"/>
    <use xlink:href="#DejaVuSans-55" transform="translate(2403.265625 0)"/>
    <use xlink:href="#DejaVuSans-3" transform="translate(2444.375 0)"/>
    <use xlink:href="#DejaVuSans-57" transform="translate(2476.15625 0)"/>
    <use xlink:href="#DejaVuSans-4b" transform="translate(2515.359375 0)"/>
    <use xlink:href="#DejaVuSans-48" transform="translate(2578.734375 0)"/>
    <use xlink:href="#DejaVuSans-3" transform="translate(2640.265625 0)"/>
    <use xlink:href="#DejaVuSans-5a" transform="translate(2672.046875 0)"/>
    <use xlink:href="#DejaVuSans-44" transform="translate(2753.828125 0)"/>
    <use xlink:href="#DejaVuSans-55" transform="translate(2815.109375 0)"/>
    <use xlink:href="#DejaVuSans-50" transform="translate(2854.46875 0)"/>
    <use xlink:href="#DejaVuSans-3" transform="translate(2951.875 0)"/>
    <use xlink:href="#DejaVuSans-56" transform="translate(2983.65625 0)"/>
    <use xlink:href="#DejaVuSans-57" transform="translate(3035.75 0)"/>
    <use xlink:href="#DejaVuSans-44" transform="translate(3074.953125 0)"/>
    <use xlink:href="#DejaVuSans-55" transform="translate(3136.234375 0)"/>
    <use xlink:href="#DejaVuSans-57" transform="translate(3177.34375 0)"/>
    <use xlink:href="#DejaVuSans-22" transform="translate(3216.546875 0)"/>
    <use xlink:href="#DejaVuSans-3" transform="translate(3269.625 0)"/>
    <use xlink:href="#DejaVuSans-b" transform="translate(3301.40625 0)"/>
    <use xlink:href="#DejaVuSans-45" transform="translate(3340.421875 0)"/>
    <use xlink:href="#DejaVuSans-4f" transform="translate(3403.90625 0)"/>
    <use xlink:href="#DejaVuSans-58" transform="translate(3431.6875 0)"/>
    <use xlink:href="#DejaVuSans-48" transform="translate(3495.0625 0)"/>
    <use xlink:href="#DejaVuSans-3" transform="translate(3556.59375 0)"/>
    <use xlink:href="#DejaVuSans-20" transform="translate(3588.375 0)"/>
    <use xlink:href="#DejaVuSans-3" transform="translate(3672.171875 0)"/>
    <use xlink:href="#DejaVuSans-4c" transform="translate(3703.953125 0)"/>
    <use xlink:href="#DejaVuSans-50" transform="translate(3731.734375 0)"/>
    <use xlink:href="#DejaVuSans-53" transform="translate(3829.140625 0)"/>
    <use xlink:href="#DejaVuSans-55" transform="translate(3892.625 0)"/>
    <use xlink:href="#DejaVuSans-52" transform="translate(3931.53125 0)"/>
    <use xlink:href="#DejaVuSans-59" transform="translate(3992.71875 0)"/>
    <use xlink:href="#DejaVuSans-48" transform="translate(4051.90625 0)"/>
    <use xlink:href="#DejaVuSans-47" transform="translate(4113.4375 0)"/>
    <use xlink:href="#DejaVuSans-f" transform="translate(4176.921875 0)"/>
    <use xlink:href="#DejaVuSans-3" transform="translate(4208.703125 0)"/>
    <use xlink:href="#DejaVuSans-4a" transform="translate(4240.484375 0)"/>
    <use xlink:href="#DejaVuSans-55" transform="translate(4303.96875 0)"/>
    <use xlink:href="#DejaVuSans-48" transform="translate(4342.875 0)"/>
    <use xlink:href="#DejaVuSans-5c" transform="translate(4404.40625 0)"/>
    <use xlink:href="#DejaVuSans-3" transform="translate(4463.59375 0)"/>
    <use xlink:href="#DejaVuSans-20" transform="translate(4495.375 0)"/>
    <use xlink:href="#DejaVuSans-3" transform="translate(4579.171875 0)"/>
    <use xlink:href="#DejaVuSans-58" transform="translate(4610.953125 0)"/>
    <use xlink:href="#DejaVuSans-51" transform="translate(4674.328125 0)"/>
    <use xlink:href="#DejaVuSans-46" transform="translate(4737.703125 0)"/>
    <use xlink:href="#DejaVuSans-4b" transform="translate(4792.6875 0)"/>
    <use xlink:href="#DejaVuSans-44" transform="translate(4856.0625 0)"/>
    <use xlink:href="#DejaVuSans-51" transform="translate(4917.34375 0)"/>
    <use xlink:href="#DejaVuSans-4a" transform="translate(4980.71875 0)"/>
    <use xlink:href="#DejaVuSans-48" transform="translate(5044.203125 0)"/>
    <use xlink:href="#DejaVuSans-47" transform="translate(5105.734375 0)"/>
    <use xlink:href="#DejaVuSans-12" transform="translate(5169.21875 0)"/>
    <use xlink:href="#DejaVuSans-5a" transform="translate(5202.90625 0)"/>
    <use xlink:href="#DejaVuSans-52" transform="translate(5284.6875 0)"/>
    <use xlink:href="#DejaVuSans-55" transform="translate(5345.875 0)"/>
    <use xlink:href="#DejaVuSans-56" transform="translate(5386.984375 0)"/>
    <use xlink:href="#DejaVuSans-48" transform="translate(5439.078125 0)"/>
    <use xlink:href="#DejaVuSans-c" transform="translate(5500.609375 0)"/>
   </g>
  </g>
 </g>
 <defs>
  <clipPath id="pe55545d839">
   <rect x="54.442344" y="59.07501" width="230.870517" height="187.357256"/>
  </clipPath>
  <clipPath id="p4bc6f86556">
   <rect x="345.864359" y="59.07501" width="230.870517" height="187.357256"/>
  </clipPath>
 </defs>
</svg>
